<svg xmlns="http://www.w3.org/2000/svg" xmlns:xlink="http://www.w3.org/1999/xlink" width="123.183" height="48" viewBox="0 0 123.183 48"><defs><style>.a{fill:none;}.b{clip-path:url(#a);}.c{fill:#222;}.d{fill:#ff671f;}.e{fill:#fff;}</style><clipPath id="a"><rect class="a" width="123.183" height="48"/></clipPath></defs><g transform="translate(61.591 24)"><g class="b" transform="translate(-61.591 -24)"><path class="c" d="M1832.938,400.344c-2.731-.276-3.247-.828-3.247-1.754,0-1.544,2.2-1.657,2.876-1.663a2.775,2.775,0,0,1,2.952,1.845c.1,0,2.634.015,2.819,0,0-.649-.925-4.572-5.774-4.572-3.556,0-5.853,1.732-5.853,4.415,0,3.435,2.7,4.16,5.61,4.433,3.083.288,3.313.9,3.313,1.8,0,1.016-1.265,1.757-3.01,1.754-2.94-.006-3.186-2.106-3.186-2.106l-3.04-.036c.064,1.159,1.016,4.87,6.223,4.87,3.583,0,5.911-1.705,5.911-4.342,0-2.934-1.572-4.236-5.6-4.642" transform="translate(-1770.984 -382.239)"/><path class="c" d="M3946.842,385.7a1.742,1.742,0,1,0,1.742,1.742,1.741,1.741,0,0,0-1.742-1.742" transform="translate(-3825.4 -373.997)"/><path class="c" d="M3512.27,402.942a6.971,6.971,0,1,0-6.969-6.972,6.977,6.977,0,0,0,6.969,6.972m0-10.935a3.966,3.966,0,1,1-3.966,3.966,3.969,3.969,0,0,1,3.966-3.966" transform="translate(-3398.945 -377.197)"/><path class="c" d="M3574.634,886.3H3566.9v2.946c0,4.357,2.036,6.478,6.226,6.478h1.511c2.986,0,5.152-1.981,5.152-4.712s-2.166-4.712-5.152-4.712m0,6.648h-1.514c-2.582,0-3.453-.907-3.453-3.589v-.285h4.961c1.15,0,2.382.51,2.382,1.939s-1.232,1.939-2.382,1.939" transform="translate(-3458.675 -859.408)"/><path class="c" d="M2313.21,399.185c0-3-2.391-5.185-5.683-5.185a6.351,6.351,0,0,1-8.344,0c-3.292,0-5.683,2.182-5.683,5.185v9.527h2.995v-9.636c.064-1.535,1.475-2.084,2.685-2.084s2.546.522,2.673,1.966c0,.076.009,9.752.009,9.752h2.995s0-9.679-.006-9.752c.131-1.444,1.5-1.966,2.676-1.966,1.241,0,2.688.573,2.688,2.191v9.527h2.995Z" transform="translate(-2223.912 -382.046)"/><path class="c" d="M3030.983,400.127c-.049-4.657-2.109-6.827-6.49-6.827-3.128,0-5.65,1.641-6.023,4.33h3.3c.282-1.374,1.993-1.5,2.682-1.5,2.321,0,3.41.834,3.538,3.064l-.04-.012a17.222,17.222,0,0,0-3.095-.34c-4.284,0-6.651,1.651-6.651,4.921,0,3.419,2.543,4.6,6.76,4.6a32.132,32.132,0,0,0,6.023-.6Zm-6.244,5.571c-2.591,0-3.489-.765-3.489-2,0-1.347.789-2.094,3.79-2.094a10.3,10.3,0,0,1,2.931.422v3.426a13.46,13.46,0,0,1-3.231.249" transform="translate(-2926.624 -381.367)"/><path class="c" d="M2492.715,975.9v1.274h-1.629V982.6h-1.32v-5.425H2488.2V975.9Z" transform="translate(-2412.705 -946.29)"/><path class="c" d="M2682.614,982.6l-1.411-2.13h-.883v2.13H2679v-6.7h2.03a2.832,2.832,0,0,1,1.936.607,2.079,2.079,0,0,1,.686,1.651,2.654,2.654,0,0,1-.258,1.159,1.924,1.924,0,0,1-.795.853l1.556,2.43Zm-2.294-3.4h.938a.935.935,0,0,0,.783-.312,1.072,1.072,0,0,0,.246-.677,1.285,1.285,0,0,0-.209-.695.892.892,0,0,0-.81-.334h-.947Z" transform="translate(-2597.716 -946.29)"/><path class="c" d="M2863.969,972.853h-2.221l-.546,1.311h-1.3l3.022-6.963h.073l3.022,6.963h-1.529Zm-.437-1.11-.646-1.629-.674,1.629Z" transform="translate(-2773.127 -937.854)"/><path class="c" d="M3069.724,980.228a3.406,3.406,0,0,1-1.211.209,3.526,3.526,0,0,1-1.821-.455,3.08,3.08,0,0,1-1.183-1.226,3.526,3.526,0,0,1-.41-1.687,3.864,3.864,0,0,1,.41-1.8,3.021,3.021,0,0,1,1.147-1.232,3.258,3.258,0,0,1,1.7-.44,3.733,3.733,0,0,1,1.129.164,3.937,3.937,0,0,1,.91.41l-.519,1.247a2.416,2.416,0,0,0-1.475-.546,1.757,1.757,0,0,0-.956.282,2.041,2.041,0,0,0-.71.768,2.224,2.224,0,0,0-.264,1.077,2.493,2.493,0,0,0,.246,1.135,1.825,1.825,0,0,0,.7.762,2.031,2.031,0,0,0,1.065.273,2.326,2.326,0,0,0,.883-.158,1.89,1.89,0,0,0,.619-.379l.546,1.183a2.967,2.967,0,0,1-.81.419" transform="translate(-2972.101 -944.055)"/><path class="c" d="M3292.27,975.9v1.274h-3.25V978.6h2.876v1.274h-2.876v1.447h3.377V982.6h-4.7v-6.7Z" transform="translate(-3187.947 -946.29)"/><path class="d" d="M48,24A24,24,0,1,1,24,0,24,24,0,0,1,48,24"/><path class="e" d="M476.54,430.442a.112.112,0,0,0,.221.024c.373-1.493,1.535-4.685,4.779-5.534,4.275-1.117,8.432-.595,10.959-1.918a6.479,6.479,0,0,0,3.089-4.114h-9.248a9.581,9.581,0,0,0-7.261,2.922c-1.663,1.887-2.81,4.251-2.54,8.617" transform="translate(-462.043 -406.19)"/><path class="e" d="M710.292,662.612a.891.891,0,0,0-.792.871V678.26a2.475,2.475,0,0,0,4.946,0V662.634a.4.4,0,0,0-.443-.388c-1.165.106-2.415.2-3.711.364" transform="translate(-687.973 -642.15)"/></g></g></svg>