<svg xmlns="http://www.w3.org/2000/svg" width="123.885" height="48" viewBox="0 0 123.885 48"><defs><style>.a{fill:#fff;}</style></defs><g transform="translate(61.943 24)"><g transform="translate(-61.943 -24)"><path class="a" d="M1833.232,400.044c-2.731-.276-3.247-.828-3.247-1.754,0-1.544,2.2-1.657,2.876-1.663a2.775,2.775,0,0,1,2.952,1.845c.1,0,2.634.015,2.819,0,0-.649-.925-4.572-5.774-4.572-3.556,0-5.853,1.733-5.853,4.415,0,3.435,2.7,4.16,5.61,4.433,3.083.288,3.313.9,3.313,1.8,0,1.016-1.265,1.757-3.01,1.754-2.94-.006-3.186-2.106-3.186-2.106l-3.034-.039c.064,1.159,1.016,4.87,6.223,4.87,3.583,0,5.91-1.705,5.91-4.342C1838.836,401.752,1837.265,400.451,1833.232,400.044Z" transform="translate(-1771.275 -381.949)"/><circle class="a" cx="1.742" cy="1.742" r="1.742" transform="translate(119.039 13.037) rotate(-34.7)"/><path class="a" d="M3512.369,402.739a6.969,6.969,0,1,0-6.969-6.969A6.978,6.978,0,0,0,3512.369,402.739Zm0-10.935a3.966,3.966,0,1,1-3.966,3.966A3.966,3.966,0,0,1,3512.369,391.8Z" transform="translate(-3399.042 -377.003)"/><path class="a" d="M3574.634,886H3566.9v2.946c0,4.357,2.036,6.478,6.226,6.478h1.511c2.986,0,5.152-1.981,5.152-4.712S3577.619,886,3574.634,886Zm0,6.648h-1.511c-2.582,0-3.453-.907-3.453-3.589v-.285h4.961c1.15,0,2.382.51,2.382,1.939s-1.226,1.939-2.379,1.939Z" transform="translate(-3458.675 -859.118)"/><path class="a" d="M2304.951,398.661c.13-1.444,1.5-1.966,2.676-1.966,1.241,0,2.688.573,2.688,2.191v9.527h2.995v-9.527c0-3-2.391-5.185-5.683-5.185a6.35,6.35,0,0,1-8.344,0c-3.292,0-5.683,2.182-5.683,5.185v9.527h2.995v-9.636c.064-1.535,1.474-2.081,2.685-2.081s2.546.522,2.676,1.966c0,.076.009,9.752.009,9.752h2.995S2304.954,398.734,2304.951,398.661Z" transform="translate(-2224.009 -381.755)"/><path class="a" d="M3031.083,399.827c-.049-4.657-2.109-6.827-6.49-6.827-3.128,0-5.65,1.641-6.023,4.33h3.295c.282-1.374,1.993-1.5,2.682-1.5,2.321,0,3.41.834,3.538,3.064l-.039-.012a17.22,17.22,0,0,0-3.095-.343c-4.284,0-6.651,1.651-6.651,4.921,0,3.419,2.542,4.6,6.76,4.6a32.132,32.132,0,0,0,6.023-.6Zm-6.244,5.571c-2.591,0-3.489-.765-3.489-2,0-1.347.789-2.094,3.79-2.094a10.3,10.3,0,0,1,2.931.422v3.426A13.459,13.459,0,0,1,3024.839,405.4Z" transform="translate(-2926.721 -381.076)"/><path class="a" d="M2593.183,994.03a1.424,1.424,0,0,0,.528-.54,1.584,1.584,0,0,0,.188-.786,1.289,1.289,0,0,0-.546-1.12,2.525,2.525,0,0,0-1.5-.385H2590.1v5.986h1.993a2.5,2.5,0,0,0,1.493-.428,1.533,1.533,0,0,0,.6-1.338,1.329,1.329,0,0,0-.264-.816A1.87,1.87,0,0,0,2593.183,994.03Zm-1.9-1.693h.634a.9.9,0,0,1,.561.158.545.545,0,0,1,.2.458.709.709,0,0,1-.179.492.64.64,0,0,1-.5.2h-.716Zm1.429,3.583a1.207,1.207,0,0,1-.671.167h-.759v-1.3h.677q1.007,0,1.007.634A.561.561,0,0,1,2592.709,995.92Z" transform="translate(-2511.513 -961.125)"/><path class="a" d="M2756.247,989.421a2.986,2.986,0,0,0-3.049,0,3.1,3.1,0,0,0-1.114,1.126,3.037,3.037,0,0,0,0,3.049,3.048,3.048,0,0,0,4.166,1.11,3.127,3.127,0,0,0,1.123-1.11,2.986,2.986,0,0,0,0-3.049A3.177,3.177,0,0,0,2756.247,989.421Zm.085,3.611a1.815,1.815,0,0,1-.649.692,1.717,1.717,0,0,1-.919.255,1.806,1.806,0,0,1-.947-.255,1.862,1.862,0,0,1-.677-.695,1.912,1.912,0,0,1-.249-.959,1.976,1.976,0,0,1,.243-.977,1.854,1.854,0,0,1,.665-.695,1.82,1.82,0,0,1,1.863,0,1.853,1.853,0,0,1,.665.695,2.078,2.078,0,0,1,.009,1.939Z" transform="translate(-2668.184 -958.994)"/><path class="a" d="M2964.482,994.574l-1.365-3.374H2961.7l2.734,6.262,2.734-6.262h-1.4Z" transform="translate(-2871.838 -961.126)"/><rect class="a" width="1.18" height="5.988" transform="translate(96.364 30.074)"/><path class="a" d="M3270.03,987.238l-4.181-3.838h-.048v6.223h1.2l-.024-3.538,4.19,3.781h.031v-6.229h-1.187Z" transform="translate(-3166.711 -953.562)"/><path class="a" d="M24,0A24,24,0,1,0,48,24,24,24,0,0,0,24,0ZM16.879,14.342a2.576,2.576,0,0,1,2.576-2.576h4.606a10.421,10.421,0,0,1,6.117,1.578A5.256,5.256,0,0,1,32.4,17.917a6.5,6.5,0,0,1-.765,3.207,5.855,5.855,0,0,1-2.16,2.212,8.59,8.59,0,0,1,1.933,1.214.088.088,0,0,1,.03.082,6.357,6.357,0,0,1-2.77,4.12.085.085,0,0,1-.118-.073q-.264-2.248-4.1-2.251h-2.67a.085.085,0,0,0-.085.085v3.234a.085.085,0,0,1-.073.085,9.834,9.834,0,0,0-3.2.928,6.9,6.9,0,0,0-1.4.974.085.085,0,0,1-.143-.064Zm13.89,19.437a8.064,8.064,0,0,1-6.111,2.461h-7.78a5.439,5.439,0,0,1,2.6-3.462C21.6,31.667,25.1,32.1,28.7,31.164c2.728-.713,3.708-3.4,4.023-4.657a.093.093,0,0,1,.185.021c.225,3.671-.74,5.662-2.139,7.249Z"/><path class="a" d="M715.283,546.552h2.84a2.637,2.637,0,0,0,2.063-.813,2.879,2.879,0,0,0,.731-2.012,2.235,2.235,0,0,0-.831-1.878,3.656,3.656,0,0,0-2.294-.649h-2.509a.085.085,0,0,0-.085.085v5.179a.085.085,0,0,0,.085.088Z" transform="translate(-693.498 -524.779)"/></g></g></svg>