<svg xmlns="http://www.w3.org/2000/svg" width="126.46" height="48" viewBox="0 0 126.46 48"><defs><style>.a{fill:#fff;}</style></defs><g transform="translate(63.23 24)"><g transform="translate(-63.23 -24)"><path class="a" d="M2843.774,557.589c-1.211,0-2.618.546-2.682,2.078v9.612H2838.1v-9.506c0-3,2.388-5.173,5.674-5.173Z" transform="translate(-2751.988 -537.773)"/><path class="a" d="M3576.686,561.852a7.576,7.576,0,1,0-7.585-7.576A7.59,7.59,0,0,0,3576.686,561.852Zm0-11.885a4.308,4.308,0,1,1-4.315,4.308A4.317,4.317,0,0,1,3576.686,549.968Z" transform="translate(-3460.809 -530.112)"/><path class="a" d="M2320.463,560.705a6.953,6.953,0,1,0-6.963-6.951A6.965,6.965,0,0,0,2320.463,560.705Zm0-10.908a3.955,3.955,0,1,1-3.959,3.956A3.962,3.962,0,0,1,2320.463,549.8Z" transform="translate(-2243.305 -530.209)"/><ellipse class="a" cx="1.893" cy="1.89" rx="1.893" ry="1.89" transform="translate(122.673 16.491)"/><path class="a" d="M2382.725,1042.9H2375v2.937c0,4.348,2.033,6.46,6.217,6.46h1.508c2.979,0,5.143-1.978,5.143-4.7S2385.7,1042.9,2382.725,1042.9Zm0,6.633h-1.508c-2.576,0-3.447-.9-3.447-3.58v-.285h4.955c1.15,0,2.379.507,2.379,1.933S2383.875,1049.533,2382.725,1049.533Z" transform="translate(-2302.939 -1011.257)"/><path class="a" d="M1839.865,557.909c-.049-4.645-2.106-6.809-6.481-6.809-3.122,0-5.643,1.638-6.014,4.321h3.292c.282-1.371,1.99-1.5,2.679-1.5,2.318,0,3.407.834,3.532,3.055l-.039-.012a17.187,17.187,0,0,0-3.092-.34c-4.278,0-6.642,1.645-6.642,4.909,0,3.41,2.54,4.588,6.751,4.588a32.283,32.283,0,0,0,6.014-.6Zm-6.235,5.559c-2.588,0-3.486-.762-3.486-2,0-1.344.789-2.088,3.787-2.088a10.274,10.274,0,0,1,2.928.422v3.413A13.411,13.411,0,0,1,1833.63,563.467Z" transform="translate(-1771.663 -534.379)"/><path class="a" d="M3100.009,557.427c-.282,1.368-1.981,1.5-2.67,1.5-2.3,0-3.386-.822-3.52-3.022a.068.068,0,0,1,0-.024l.04.012.061.012h4.542c2.919,0,5.037-1.936,5.037-4.6a4.389,4.389,0,0,0-1.553-3.413,5.325,5.325,0,0,0-3.483-1.189h-1.475a10.05,10.05,0,0,0-1.426.1h-.009c-3.125.455-4.648,2.5-4.648,6.229V555.9h.009c.009.24.021.473.042.7.494,3.5,2.54,5.134,6.347,5.134,3.11,0,5.622-1.632,5.992-4.305Zm-6.4-4.509a6.057,6.057,0,0,1,.222-1.82h0c.364-1.144,1.214-1.62,2.791-1.681h.024l.337-.006h1.475c1.129,0,2.33.5,2.33,1.9a1.685,1.685,0,0,1-.983,1.605,3.026,3.026,0,0,1-1.35.288h-4.846Z" transform="translate(-2997.118 -530.111)"/><path class="a" d="M24,0A24,24,0,1,0,48,24,24,24,0,0,0,24,0ZM16.275,24.731l5.034-11.457a2.427,2.427,0,0,1,4.445,0l4.366,9.943a.1.1,0,0,1-.088.137H25.2a.1.1,0,0,1-.091-.061l-1.484-3.659a.1.1,0,0,0-.179,0l-1.493,3.674a.094.094,0,0,1-.085.061,11.782,11.782,0,0,0-5.452,1.484.094.094,0,0,1-.137-.121Zm1.82,6.5c-2.852.746-3.875,3.553-4.2,4.867a.1.1,0,0,1-.194-.021c-.237-3.841.771-5.92,2.233-7.579a8.423,8.423,0,0,1,6.387-2.57h8.131a5.7,5.7,0,0,1-2.716,3.62c-2.224,1.165-5.88.7-9.639,1.681Zm13.456,4.946h0a2.779,2.779,0,0,1-2.582-1.745l-.859-2.148a.1.1,0,0,1,.055-.124,7.327,7.327,0,0,0,.759-.337,7.809,7.809,0,0,0,3.31-3.392.1.1,0,0,1,.173.006l1.69,3.847A2.777,2.777,0,0,1,31.552,36.176Z"/></g></g></svg>