<?xml version="1.0" standalone="no"?>
<!DOCTYPE svg PUBLIC "-//W3C//DTD SVG 20010904//EN"
 "http://www.w3.org/TR/2001/REC-SVG-20010904/DTD/svg10.dtd">
<svg version="1.0" xmlns="http://www.w3.org/2000/svg"
 width="86.000000pt" height="91.000000pt" viewBox="0 0 86.000000 91.000000"
 preserveAspectRatio="xMidYMid meet">
<metadata>
Created by potrace 1.16, written by Peter Selinger 2001-2019
</metadata>
<g transform="translate(0.000000,91.000000) scale(0.100000,-0.100000)"
fill="#000000" stroke="none">
<path d="M513 868 c-29 -7 -83 -58 -83 -78 0 -4 -14 -13 -31 -20 -40 -17 -69
-64 -69 -113 0 -29 8 -46 34 -75 l34 -37 172 -3 c95 -2 182 -1 194 2 39 10 76
55 76 93 0 42 -25 88 -57 102 -12 6 -23 17 -23 24 0 20 -41 55 -75 63 -16 4
-40 14 -52 22 -33 21 -84 30 -120 20z m85 -73 c17 -14 40 -25 53 -25 31 0 43
-9 61 -43 8 -16 25 -34 39 -40 13 -7 26 -23 27 -37 7 -43 -18 -50 -188 -50
-173 0 -200 8 -200 58 0 38 13 53 51 61 26 5 35 12 37 31 5 30 19 49 47 60 32
14 42 12 73 -15z"/>
<path d="M210 735 c0 -8 -14 -22 -31 -30 -39 -21 -73 -93 -64 -135 5 -25 12
-30 35 -30 27 0 29 2 27 39 -1 37 15 71 34 71 5 0 6 -8 2 -17 -3 -10 11 -1 33
19 l38 38 -29 30 c-32 33 -45 38 -45 15z"/>
<path d="M34 487 c-2 -7 -3 -82 -2 -167 l3 -155 93 -3 c84 -2 92 -4 92 -22 0
-16 -7 -20 -35 -20 -32 0 -35 -2 -35 -30 l0 -30 121 0 120 0 -3 28 c-2 22 -8
28 -35 30 -25 2 -33 8 -33 23 0 17 8 19 89 19 81 0 89 2 94 21 9 33 5 283 -5
302 -8 15 -29 17 -234 17 -174 0 -226 -3 -230 -13z m259 -47 l157 0 0 -110 0
-110 -47 -1 c-27 -1 -106 -1 -178 -1 l-130 0 -3 117 -3 118 23 -7 c13 -3 94
-6 181 -6z"/>
<path d="M664 475 c4 -15 0 -37 -9 -55 -17 -33 -35 -40 -35 -13 0 13 -7 10
-30 -12 -16 -16 -30 -34 -30 -40 0 -6 14 -24 30 -40 23 -22 30 -25 30 -12 0 9
12 23 28 31 39 20 63 50 72 91 12 54 3 75 -32 75 -27 0 -30 -2 -24 -25z"/>
</g>
</svg>
