<?xml version="1.0" standalone="no"?>
<!DOCTYPE svg PUBLIC "-//W3C//DTD SVG 20010904//EN"
 "http://www.w3.org/TR/2001/REC-SVG-20010904/DTD/svg10.dtd">
<svg version="1.0" xmlns="http://www.w3.org/2000/svg"
 width="45.000000pt" height="48.000000pt" viewBox="0 0 45.000000 48.000000"
 preserveAspectRatio="xMidYMid meet">
<metadata>
Created by potrace 1.16, written by Peter Selinger 2001-2019
</metadata>
<g transform="translate(0.000000,48.000000) scale(0.100000,-0.100000)"
fill="#000000" stroke="none">
<path d="M215 415 c-48 -49 -54 -68 -29 -103 14 -20 23 -22 124 -22 98 0 110
2 120 19 16 31 12 48 -22 84 -37 39 -90 67 -124 67 -14 0 -41 -18 -69 -45z
m105 0 c7 -8 16 -13 20 -10 13 8 72 -56 66 -71 -8 -22 -192 -20 -200 2 -7 19
10 44 30 44 8 0 14 6 14 13 0 34 48 49 70 22z"/>
<path d="M24 261 c-2 -2 -4 -44 -4 -93 l0 -88 45 0 c25 0 45 -4 45 -10 0 -5
-7 -10 -15 -10 -8 0 -15 -7 -15 -15 0 -12 13 -15 60 -15 47 0 60 3 60 15 0 8
-7 15 -15 15 -8 0 -15 5 -15 10 0 6 20 10 45 10 l46 0 -3 91 -3 91 -113 2
c-63 0 -115 -1 -118 -3z m206 -92 l0 -59 -90 0 -90 0 0 63 0 62 90 -3 90 -3 0
-60z"/>
</g>
</svg>
