<svg xmlns="http://www.w3.org/2000/svg" width="123.183" height="48" viewBox="0 0 123.183 48"><defs><style>.a{fill:#222;}.b{fill:#41b6e6;}.c{fill:#fff;}</style></defs><g transform="translate(61.591 24)"><g transform="translate(-61.591 -24)"><g transform="translate(55.425 11.694)"><path class="a" d="M1833.232,400.044c-2.731-.276-3.247-.828-3.247-1.754,0-1.544,2.2-1.657,2.876-1.663a2.775,2.775,0,0,1,2.952,1.845c.1,0,2.634.015,2.819,0,0-.649-.925-4.572-5.774-4.572-3.556,0-5.853,1.733-5.853,4.415,0,3.435,2.7,4.16,5.61,4.433,3.083.288,3.313.9,3.313,1.8,0,1.016-1.265,1.757-3.01,1.754-2.94-.006-3.186-2.106-3.186-2.106l-3.034-.039c.064,1.159,1.016,4.87,6.223,4.87,3.583,0,5.91-1.705,5.91-4.342C1838.836,401.752,1837.265,400.451,1833.232,400.044Z" transform="translate(-1826.7 -393.642)"/><g transform="translate(50.934)"><circle class="a" cx="1.742" cy="1.742" r="1.742" transform="translate(13.341)"/><path class="a" d="M3512.369,402.739a6.969,6.969,0,1,0-6.969-6.969A6.978,6.978,0,0,0,3512.369,402.739Zm0-10.935a3.966,3.966,0,1,1-3.966,3.966A3.966,3.966,0,0,1,3512.369,391.8Z" transform="translate(-3505.4 -388.697)"/><path class="a" d="M3574.637,886H3566.9v2.946c0,4.357,2.036,6.478,6.226,6.478h1.511c2.986,0,5.152-1.981,5.152-4.712S3577.619,886,3574.637,886Zm0,6.648h-1.511c-2.582,0-3.453-.907-3.453-3.589v-.285h4.961c1.15,0,2.382.51,2.382,1.939s-1.229,1.939-2.379,1.939Z" transform="translate(-3565.034 -870.811)"/></g><path class="a" d="M2313.31,398.885c0-3-2.391-5.185-5.683-5.185a6.35,6.35,0,0,1-8.344,0c-3.292,0-5.683,2.182-5.683,5.185v9.527h2.995v-9.636c.064-1.535,1.474-2.081,2.685-2.081s2.546.522,2.676,1.966c0,.076.009,9.752.009,9.752h2.995s0-9.679-.006-9.752c.131-1.444,1.5-1.966,2.676-1.966,1.241,0,2.688.573,2.688,2.191v9.527h2.995Z" transform="translate(-2279.434 -393.448)"/><path class="a" d="M3031.083,399.827c-.049-4.657-2.109-6.827-6.49-6.827-3.128,0-5.65,1.641-6.023,4.33h3.295c.282-1.374,1.993-1.5,2.682-1.5,2.321,0,3.41.834,3.538,3.064l-.039-.012a17.22,17.22,0,0,0-3.095-.343c-4.284,0-6.651,1.651-6.651,4.921,0,3.419,2.542,4.6,6.76,4.6a32.132,32.132,0,0,0,6.023-.6Zm-6.244,5.571c-2.591,0-3.489-.765-3.489-2,0-1.347.789-2.094,3.79-2.094a10.3,10.3,0,0,1,2.931.422v3.426A13.459,13.459,0,0,1,3024.839,405.4Z" transform="translate(-2982.146 -392.769)"/></g><g transform="translate(78.587 29.838)"><path class="a" d="M2593.92,994.6a1.329,1.329,0,0,1,.264.816,1.533,1.533,0,0,1-.6,1.338,2.5,2.5,0,0,1-1.493.428H2590.1V991.2h1.757a2.546,2.546,0,0,1,1.5.385,1.294,1.294,0,0,1,.546,1.12,1.584,1.584,0,0,1-.188.786,1.424,1.424,0,0,1-.528.54A1.869,1.869,0,0,1,2593.92,994.6Zm-2.64-.956H2592a.64.64,0,0,0,.5-.2.709.709,0,0,0,.179-.492.545.545,0,0,0-.2-.458.9.9,0,0,0-.561-.158h-.634Zm1.429,2.273a.557.557,0,0,0,.255-.5q0-.634-1.007-.634h-.677v1.3h.756A1.223,1.223,0,0,0,2592.709,995.921Z" transform="translate(-2590.1 -990.963)"/><path class="a" d="M2751.887,990.546a3.1,3.1,0,0,1,1.114-1.126,2.985,2.985,0,0,1,3.049,0,3.173,3.173,0,0,1,1.123,1.126,2.986,2.986,0,0,1,0,3.049,3.125,3.125,0,0,1-1.123,1.11,3.046,3.046,0,0,1-4.166-4.16Zm1.059,2.482a1.862,1.862,0,0,0,.677.695,1.806,1.806,0,0,0,.947.255,1.717,1.717,0,0,0,.919-.255,1.816,1.816,0,0,0,.649-.692,2.078,2.078,0,0,0-.009-1.939,1.855,1.855,0,0,0-.665-.695,1.821,1.821,0,0,0-1.863,0,1.855,1.855,0,0,0-.665.695,1.981,1.981,0,0,0-.243.977,1.917,1.917,0,0,0,.249.959Z" transform="translate(-2746.577 -988.832)"/><path class="a" d="M2967.167,991.2l-2.734,6.266L2961.7,991.2h1.417l1.365,3.377,1.286-3.377Z" transform="translate(-2950.425 -990.963)"/><path class="a" d="M3177.177,991.2v5.986H3176V991.2Z" transform="translate(-3158.223 -990.963)"/><path class="a" d="M3271.095,983.637v6.232h-.033l-4.19-3.784.024,3.538h-1.2V983.4h.049l4.181,3.841-.024-3.6Z" transform="translate(-3245.201 -983.4)"/></g><circle class="b" cx="24" cy="24" r="24"/><path class="c" d="M572.044,871.059c-.312,1.256-1.293,3.944-4.023,4.657-3.6.941-7.094.5-9.224,1.614a5.433,5.433,0,0,0-2.6,3.462h7.783a8.06,8.06,0,0,0,6.111-2.461c1.4-1.587,2.364-3.577,2.139-7.252A.1.1,0,0,0,572.044,871.059Z" transform="translate(-539.324 -844.556)"/><path class="c" d="M557.844,406.7a9.856,9.856,0,0,1,3.2-.928.085.085,0,0,0,.073-.085v-3.234a.085.085,0,0,1,.088-.085h2.673q3.838,0,4.1,2.251a.085.085,0,0,0,.118.073,6.364,6.364,0,0,0,2.77-4.12.088.088,0,0,0-.03-.082,8.681,8.681,0,0,0-1.933-1.214,5.827,5.827,0,0,0,2.16-2.212,6.512,6.512,0,0,0,.765-3.207,5.256,5.256,0,0,0-2.227-4.572,10.442,10.442,0,0,0-6.12-1.581h-4.606a2.576,2.576,0,0,0-2.576,2.576V407.6a.085.085,0,0,0,.143.064A6.9,6.9,0,0,1,557.844,406.7Zm3.277-14.254a.085.085,0,0,1,.085-.085h2.509a3.639,3.639,0,0,1,2.294.649,2.243,2.243,0,0,1,.831,1.878,2.86,2.86,0,0,1-.731,2.012,2.633,2.633,0,0,1-2.063.813h-2.84a.085.085,0,0,1-.085-.085Z" transform="translate(-539.421 -375.937)"/></g></g></svg>