<svg xmlns="http://www.w3.org/2000/svg" width="123.186" height="48" viewBox="0 0 123.186 48"><defs><style>.a{fill:#222;}.b{fill:#fff;}</style></defs><g transform="translate(61.593 24)"><g transform="translate(-61.593 -24)"><g transform="translate(55.428 11.694)"><path class="a" d="M1833.333,400.044c-2.731-.276-3.247-.828-3.247-1.754,0-1.544,2.2-1.657,2.876-1.663a2.775,2.775,0,0,1,2.952,1.845c.1,0,2.634.015,2.819,0,0-.649-.925-4.572-5.774-4.572-3.556,0-5.853,1.733-5.853,4.415,0,3.435,2.7,4.16,5.61,4.433,3.083.288,3.313.9,3.313,1.8,0,1.016-1.265,1.757-3.01,1.754-2.94-.006-3.186-2.106-3.186-2.106l-3.034-.039c.064,1.159,1.016,4.87,6.223,4.87,3.583,0,5.911-1.705,5.911-4.342C1838.937,401.752,1837.365,400.451,1833.333,400.044Z" transform="translate(-1826.8 -393.642)"/><g transform="translate(50.934)"><circle class="a" cx="1.742" cy="1.742" r="1.742" transform="translate(13.341)"/><path class="a" d="M3512.469,402.739a6.969,6.969,0,1,0-6.969-6.969A6.977,6.977,0,0,0,3512.469,402.739Zm0-10.935a3.966,3.966,0,1,1-3.966,3.966A3.966,3.966,0,0,1,3512.469,391.8Z" transform="translate(-3505.5 -388.697)"/><path class="a" d="M3574.734,886H3567v2.946c0,4.357,2.036,6.478,6.226,6.478h1.511c2.986,0,5.152-1.981,5.152-4.712S3577.72,886,3574.734,886Zm0,6.648h-1.511c-2.582,0-3.453-.907-3.453-3.589v-.285h4.961c1.15,0,2.382.51,2.382,1.939s-1.226,1.939-2.379,1.939Z" transform="translate(-3565.134 -870.811)"/></g><path class="a" d="M2313.41,398.885c0-3-2.391-5.185-5.683-5.185a6.351,6.351,0,0,1-8.344,0c-3.292,0-5.683,2.182-5.683,5.185v9.527h2.995v-9.636c.064-1.535,1.475-2.081,2.685-2.081s2.546.522,2.676,1.966c0,.076.009,9.752.009,9.752h2.995s0-9.679-.006-9.752c.13-1.444,1.5-1.966,2.676-1.966,1.241,0,2.688.573,2.688,2.191v9.527h2.995Z" transform="translate(-2279.534 -393.448)"/><path class="a" d="M3031.183,399.827c-.048-4.657-2.109-6.827-6.49-6.827-3.128,0-5.649,1.641-6.023,4.33h3.3c.282-1.374,1.993-1.5,2.682-1.5,2.321,0,3.41.834,3.538,3.064l-.04-.012a17.214,17.214,0,0,0-3.095-.343c-4.284,0-6.651,1.651-6.651,4.921,0,3.419,2.543,4.6,6.76,4.6a32.134,32.134,0,0,0,6.023-.6Zm-6.244,5.571c-2.591,0-3.489-.765-3.489-2,0-1.347.789-2.094,3.79-2.094a10.3,10.3,0,0,1,2.931.422v3.426A13.463,13.463,0,0,1,3024.939,405.4Z" transform="translate(-2982.245 -392.769)"/></g><g transform="translate(64.048 29.659)"><path class="a" d="M2110.9,986.8h1.632a4.028,4.028,0,0,1,1.611.288,3.07,3.07,0,0,1,1.074.746,2.8,2.8,0,0,1,.6,1.041,3.817,3.817,0,0,1,.185,1.162,3.076,3.076,0,0,1-.255,1.274,2.918,2.918,0,0,1-.686.962,3,3,0,0,1-1.007.61,3.473,3.473,0,0,1-1.214.212H2110.9Zm1.778,5.295a2.856,2.856,0,0,0,.907-.14,2.007,2.007,0,0,0,.716-.41,1.873,1.873,0,0,0,.47-.664,2.269,2.269,0,0,0,.17-.91,2.241,2.241,0,0,0-.2-1,1.966,1.966,0,0,0-.513-.664,2.016,2.016,0,0,0-.692-.37,2.482,2.482,0,0,0-.725-.115h-.846V992.1Z" transform="translate(-2110.9 -986.518)"/><path class="a" d="M2286.494,984.078l-.091-.215-.161-.379-.206-.5-.234-.564h-2.166l-.692,1.657H2281.9l.164-.385.325-.759.431-1.01q.237-.555.489-1.135t.489-1.135l.431-1.01.325-.759.164-.385.17.385.328.759.431,1.01q.237.558.489,1.135t.489,1.135l.431,1.01.325.759q.127.306.164.385ZM2284,981.529h1.432l-.622-1.5a.589.589,0,0,1-.042-.115,1.717,1.717,0,0,1-.052-.194,1.842,1.842,0,0,1-.052.194,1.18,1.18,0,0,0-.033.115Z" transform="translate(-2276.712 -977.5)"/><path class="a" d="M2465.039,986.8v1.01h-1.557V993.1h-1.062V987.81h-1.52V986.8Z" transform="translate(-2450.281 -986.518)"/><path class="a" d="M2594.694,984.078l-.091-.215-.161-.379-.206-.5-.234-.564h-2.167l-.692,1.657H2590.1l.164-.385.325-.759.431-1.01q.237-.555.489-1.135t.489-1.135l.431-1.01.325-.759.164-.385.17.385.328.759.431,1.01q.237.558.489,1.135t.489,1.135l.431,1.01.325.759q.127.306.164.385Zm-2.494-2.549h1.432l-.622-1.5a.606.606,0,0,1-.042-.115,1.716,1.716,0,0,1-.052-.194,1.9,1.9,0,0,1-.052.194,1.116,1.116,0,0,0-.033.115Z" transform="translate(-2575.561 -977.5)"/><path class="a" d="M2799.9,993.1v-6.3h1.053v5.295h3.055v1Z" transform="translate(-2778.995 -986.518)"/><path class="a" d="M2944.194,984.078l-.091-.215-.161-.379-.206-.5-.234-.564h-2.166l-.692,1.657H2939.6l.164-.385.325-.759.431-1.01q.237-.555.488-1.135t.489-1.135l.431-1.01.325-.759.164-.385.17.385.328.759.431,1.01q.237.558.489,1.135t.489,1.135l.431,1.01.325.759q.127.306.164.385Zm-2.494-2.549h1.432l-.622-1.5a.6.6,0,0,1-.042-.115,1.716,1.716,0,0,1-.052-.194,1.9,1.9,0,0,1-.052.194,1.116,1.116,0,0,0-.033.115Z" transform="translate(-2914.456 -977.5)"/><path class="a" d="M3149.4,993.09v-6.3h1.717a3.65,3.65,0,0,1,.846.091,1.8,1.8,0,0,1,.646.285,1.255,1.255,0,0,1,.41.51,1.826,1.826,0,0,1,.143.755,2.307,2.307,0,0,1-.049.47,1.488,1.488,0,0,1-.155.422,1.239,1.239,0,0,1-.279.34,1.183,1.183,0,0,1-.431.225,1.894,1.894,0,0,1,.437.146,1.317,1.317,0,0,1,.674.722,1.813,1.813,0,0,1-.067,1.4,1.573,1.573,0,0,1-.467.531,1.948,1.948,0,0,1-.668.3,3.231,3.231,0,0,1-.786.094Zm1.053-5.337v1.708h.795a.8.8,0,0,0,.652-.258.956.956,0,0,0,.212-.622.747.747,0,0,0-.258-.625,1.1,1.1,0,0,0-.7-.2Zm0,2.606v1.769h.828a1.677,1.677,0,0,0,.44-.058,1.165,1.165,0,0,0,.364-.164.745.745,0,0,0,.243-.276.848.848,0,0,0,.085-.391.783.783,0,0,0-.1-.419.8.8,0,0,0-.276-.273,1.209,1.209,0,0,0-.391-.146,2.357,2.357,0,0,0-.452-.042Z" transform="translate(-3117.89 -986.512)"/><path class="a" d="M3305.057,986.282l-.379.865a5.957,5.957,0,0,0-.716-.206,3.082,3.082,0,0,0-.655-.079,1.476,1.476,0,0,0-.834.206.616.616,0,0,0-.306.528.537.537,0,0,0,.228.449,2.484,2.484,0,0,0,.573.31q.346.14.746.282a3.527,3.527,0,0,1,.746.367,1.971,1.971,0,0,1,.573.57,1.59,1.59,0,0,1,.231.88,1.821,1.821,0,0,1-.152.752,1.551,1.551,0,0,1-.452.58,2.179,2.179,0,0,1-.764.376,3.916,3.916,0,0,1-1.083.134,4.237,4.237,0,0,1-.692-.052,4.091,4.091,0,0,1-.555-.13,3.447,3.447,0,0,1-.765-.346l.458-.922a3.378,3.378,0,0,0,.777.306,2.48,2.48,0,0,0,1.135.073,2,2,0,0,0,.479-.13,1.23,1.23,0,0,0,.4-.258.564.564,0,0,0,.17-.422.622.622,0,0,0-.23-.5,2.306,2.306,0,0,0-.573-.346q-.346-.152-.746-.3a4.548,4.548,0,0,1-.746-.349,1.976,1.976,0,0,1-.573-.5,1.207,1.207,0,0,1-.228-.755,1.673,1.673,0,0,1,.13-.643,1.636,1.636,0,0,1,.391-.564,2.015,2.015,0,0,1,.656-.407,2.536,2.536,0,0,1,.928-.155,3.7,3.7,0,0,1,.652.058,5.7,5.7,0,0,1,.564.124,4.141,4.141,0,0,1,.413.133Z" transform="translate(-3264.697 -985.645)"/></g><circle class="a" cx="24" cy="24" r="24"/><path class="b" d="M387.649,875.913c.273,1.1,1.129,3.447,3.517,4.069,3.143.822,6.2.437,8.062,1.411a4.755,4.755,0,0,1,2.27,3.025h-6.8a7.046,7.046,0,0,1-5.343-2.151c-1.223-1.387-2.066-3.125-1.869-6.338a.082.082,0,0,1,.164-.015Z" transform="translate(-375.701 -849.264)"/><path class="b" d="M391.565,465.536v12.613a.076.076,0,0,1-.052.073l-.061-.009a11.432,11.432,0,0,1-3.923-7.036,5.914,5.914,0,0,1-.039-.743v-4.9a2.036,2.036,0,1,1,4.072,0Z" transform="translate(-375.733 -449.437)"/><path class="b" d="M756.638,475.278a6.612,6.612,0,0,0-2.591-2.018,5.018,5.018,0,0,0,1.86-1.905,5.609,5.609,0,0,0,.658-2.761,4.533,4.533,0,0,0-1.918-3.938,8.926,8.926,0,0,0-5.267-1.356h-3.6a2.576,2.576,0,0,0-2.576,2.576v12.877a.085.085,0,0,0,.067.082,7.482,7.482,0,0,1,1.893.655,6.855,6.855,0,0,1,3.368,4.491l.064.316a.085.085,0,0,0,.085.07h1.535a8.808,8.808,0,0,0,5.252-1.5,5.391,5.391,0,0,0,2.1-4.709A4.654,4.654,0,0,0,756.638,475.278Zm-9.287-7.886a.085.085,0,0,1,.085-.085h2.148a3.137,3.137,0,0,1,1.975.558,1.93,1.93,0,0,1,.716,1.617,2.473,2.473,0,0,1-.628,1.732,2.264,2.264,0,0,1-1.775.7h-2.436a.085.085,0,0,1-.085-.085Zm5.025,12.522a4.269,4.269,0,0,1-2.361.586h-2.579a.085.085,0,0,1-.085-.085v-4.406a.085.085,0,0,1,.085-.085h2.291q3.55,0,3.55,2.233a1.962,1.962,0,0,1-.9,1.757Z" transform="translate(-720.65 -449.242)"/></g></g></svg>