<svg xmlns="http://www.w3.org/2000/svg" xmlns:xlink="http://www.w3.org/1999/xlink" width="48" height="48" viewBox="0 0 48 48"><defs><style>.a{fill:none;}.b{clip-path:url(#a);}.c,.d{fill:#222;}.c{opacity:0;}</style><clipPath id="a"><rect class="a" width="48" height="48"/></clipPath></defs><g class="b"><rect class="c" width="48" height="48"/><path class="d" d="M-7403.517,2456.612a6.081,6.081,0,0,1,6.012-6.137,6.081,6.081,0,0,1,6.01,6.137,6.081,6.081,0,0,1-6.01,6.137A6.082,6.082,0,0,1-7403.517,2456.612Zm5.894-3.146a3.164,3.164,0,0,0-2.786,2.09,3.163,3.163,0,0,0,.825,3.385,3.039,3.039,0,0,0,2.075.819c.041,0,.081,0,.12,0h0a3.167,3.167,0,0,0,2.786-2.09,3.166,3.166,0,0,0-.823-3.383,3.04,3.04,0,0,0-2.079-.822Zm-35.771,1.334a7.876,7.876,0,0,1,7.782-7.95,7.879,7.879,0,0,1,7.785,7.95,7.877,7.877,0,0,1-7.785,7.948A7.874,7.874,0,0,1-7433.394,2454.8Zm4.868-2.782a3.972,3.972,0,0,0-.812,4.357,3.968,3.968,0,0,0,3.726,2.4,3.937,3.937,0,0,0,3.894-3.97,3.974,3.974,0,0,0-2.47-3.679,3.962,3.962,0,0,0-1.5-.295A3.967,3.967,0,0,0-7428.526,2452.018Zm12.951,5.947a.561.561,0,0,1-.125-.015c-.013,0-.022-.013-.034-.017a.683.683,0,0,1-.168-.1.524.524,0,0,1-.144-.235.426.426,0,0,1-.021-.1.224.224,0,0,1-.008-.035.468.468,0,0,0,.017-.125,9.889,9.889,0,0,0,.317-2.541,10.021,10.021,0,0,0-9.917-10.1,9.741,9.741,0,0,0-7,2.956.174.174,0,0,0-.032.089.194.194,0,0,0,.069.138.907.907,0,0,1,.1,1.278.879.879,0,0,1-.125.1.457.457,0,0,1-.063.112.492.492,0,0,1-.649.086.882.882,0,0,1-.442-.192,2.025,2.025,0,0,1-.7-1.42,1.96,1.96,0,0,1,.534-1.465,11.284,11.284,0,0,1,3.853-2.683l2.319-9.26h-.327a1.758,1.758,0,0,1-1.757-1.759,1.758,1.758,0,0,1,1.757-1.76h16.628a.5.5,0,0,1,.472.34l.483,1.424a1.232,1.232,0,0,1-.162,1.11,1.226,1.226,0,0,1-.995.519l-.416,0,2.44,6.875h10.5a4.837,4.837,0,0,1,4.782,4.877v2.446c-.011.054-.021.108-.026.162,0,.006-.007.009-.009.015a.459.459,0,0,1-.056.1.482.482,0,0,1-.044.065.466.466,0,0,1-.1.076.46.46,0,0,1-.048.034,1.591,1.591,0,0,1-.19.045c-.005,0-.013,0-.021,0a.3.3,0,0,1-.082-.017.356.356,0,0,1-.078-.009,7.439,7.439,0,0,0-2.467-.4,7.951,7.951,0,0,0-7.846,8.034,7.246,7.246,0,0,0,.039.8c0,.009,0,.017,0,.026s.005.015.005.024a.476.476,0,0,1-.015.073.426.426,0,0,1-.019.1.6.6,0,0,1-.25.276.584.584,0,0,1-.1.028.427.427,0,0,1-.071.022.417.417,0,0,1-.048,0Zm1.655-5.388a.906.906,0,0,0,.907.907h4.674a.906.906,0,0,0,.323-.065.692.692,0,0,0,.1-.052.831.831,0,0,0,.372-.371.882.882,0,0,0,.054-.115c.008-.022.022-.039.028-.062a8.357,8.357,0,0,1,4.1-5.146v0a.906.906,0,0,0,.354-1.215.907.907,0,0,0-1.207-.385,10.16,10.16,0,0,0-4.773,5.6h-4.021A.907.907,0,0,0-7413.92,2452.576Zm-10.5-18.892-1.386,5.652a.5.5,0,0,0,.345.6l8.838,2.588a2.4,2.4,0,0,0,.856.158,2.406,2.406,0,0,0,1.666-.677,2.5,2.5,0,0,0,.64-2.633l-2.082-5.738a.5.5,0,0,0-.468-.328h-7.926A.5.5,0,0,0-7424.421,2433.684Zm22.013,5.517v-3.474a2.019,2.019,0,0,1,2.006-2.03.908.908,0,0,1,.907.907.908.908,0,0,1-.907.907.205.205,0,0,0-.192.217v3.474a.906.906,0,0,1-.907.907A.906.906,0,0,1-7402.408,2439.2Z" transform="translate(7436.996 -2422.832)"/></g></svg>