<svg xmlns="http://www.w3.org/2000/svg" xmlns:xlink="http://www.w3.org/1999/xlink" width="48" height="48" viewBox="0 0 48 48"><defs><style>.a{fill:none;}.b{clip-path:url(#a);}.c{fill:#fff;opacity:0;}.d{fill:#222;}</style><clipPath id="a"><rect class="a" width="48" height="48"/></clipPath></defs><g class="b"><rect class="c" width="48" height="48"/><path class="d" d="M57.975,51.35a.475.475,0,0,0-.025-.1V51.2l-.075-.1v-.05l-.1-.075h-.05L40.175,43.9a4.35,4.35,0,0,0-1.375-.3l-2.575-.1v9.1L47.45,57.325l-8.15,3.55a.775.775,0,0,1-.6,0l-15.95-6.95,5.6-2.35v-1.9l-8.05,3.35h-.1l-.1.1-.05.075a.475.475,0,0,0-.05.2h0V66.375a1.75,1.75,0,0,0,1.05,1.6L24.9,69.65v-4.7a1.425,1.425,0,0,1,.625-1.175,1.375,1.375,0,0,1,1.3-.125l4.95,2.15a1.75,1.75,0,0,1,1.05,1.6v5.7L38.3,75.475a1.725,1.725,0,0,0,.675.15h0a1.725,1.725,0,0,0,.675-.15l17.25-7.5a1.75,1.75,0,0,0,1.1-1.6v-15Zm-13.75,18.9-.7.3a1.3,1.3,0,1,1-1.025-2.4l.7-.3a1.3,1.3,0,0,1,1.025,2.4Zm4.7-2.025-.7.3a1.3,1.3,0,1,1-1.025-2.4l.7-.3a1.3,1.3,0,1,1,1.025,2.4Zm4.7-2.025-.7.3A1.3,1.3,0,1,1,51.9,64.1l.7-.3a1.3,1.3,0,1,1,1.025,2.4Z" transform="translate(-15 -32.625)"/><path class="d" d="M64.1,20.473A2.425,2.425,0,0,0,62.6,20a1.97,1.97,0,0,0-2.2,1.9V35.423a2.224,2.224,0,0,0,4.4,0V21.9A1.775,1.775,0,0,0,64.1,20.473Z" transform="translate(-45.3 -14.998)"/></g></svg>