<svg xmlns="http://www.w3.org/2000/svg" width="48" height="48" viewBox="0 0 48 48"><defs><style>.a{fill:#fff;opacity:0;}.b{fill:#222;}</style></defs><g transform="translate(24 24)"><g transform="translate(-24 -24)"><rect class="a" width="48" height="48"/><g transform="translate(4.989 5.695)"><path class="b" d="M104.3,69.653a4.425,4.425,0,0,0-7.05-5.25,5.15,5.15,0,0,0-1-.75,5.225,5.225,0,0,0-6.375.95,4.274,4.274,0,1,0-5.45,6.525,4.35,4.35,0,0,0-.825,1,4.4,4.4,0,0,0,1.6,6,4.325,4.325,0,0,0,1.475.525,4.15,4.15,0,0,0,2.9,6,4.168,4.168,0,1,0,8.175-.025,4.15,4.15,0,0,0,2.925-6.025,4.375,4.375,0,0,0,2.1-7.4A4.425,4.425,0,0,0,104.3,69.653Zm-8.8,7.075L95.15,77l-.15.1h-.05a2.625,2.625,0,0,1-2.05.225h0a2.575,2.575,0,0,1-.55-.225h-.025l-.4-.3-.075-.05h-.025a2.5,2.5,0,0,1-.6-.9,2.6,2.6,0,0,1,.15-2.275H91.4a2.525,2.525,0,0,1,.725-.775,2.625,2.625,0,0,1,2.825-.125l.175.125a2.55,2.55,0,0,1,.65.625A2.625,2.625,0,0,1,96,76.078h-.025l-.075.15a2.6,2.6,0,0,1-.45.575Zm-.1-11.6a3.425,3.425,0,0,1,1.175,1.1l.125.225a3.546,3.546,0,0,1,.275,2.75h0l-.075.2h0a3.4,3.4,0,0,1-.225.475,3.45,3.45,0,0,1-.4.55l-.1.125a3.4,3.4,0,0,1-.5.425H95.65l-.25-.1-.175-.075-.5-.15h-.05l-.55-.1H93.35L93,70.6l-.225.05-.35.1-.2.05-.4.175-.125.05h-.025L91.5,70.9l-.2-.15-.25-.25-.15-.175L90.675,70l-.1-.175a3.9,3.9,0,0,1-.25-.575l-.05-.15a3.525,3.525,0,0,1,.375-2.725h.025a3.5,3.5,0,0,1,4.725-1.25Zm-10.8,1.15a2.587,2.587,0,0,1,4.325-.25,5.149,5.149,0,0,0-.25.725v.125a5.124,5.124,0,0,0-.125.725v.15a5.224,5.224,0,0,0,0,.775v.05a5.6,5.6,0,0,0,.125.75V69.4l-.35.3h0l-.425.225h-.05a4.4,4.4,0,0,0-.85,0l-.275.05-.45.075a2.725,2.725,0,0,1-.675-.275,2.575,2.575,0,0,1-1-3.5Zm.5,6.675a2.65,2.65,0,0,1,1.4-1.175h.05a2.725,2.725,0,0,1,1.15-.125h.1a2.675,2.675,0,0,1,.975.325,2.725,2.725,0,0,1,.525.4l.1.1a2.6,2.6,0,0,1,.375.5h0a4.325,4.325,0,0,0-.225.625v.15a4.276,4.276,0,0,0-.1.625v.075a4.275,4.275,0,0,0,0,.675v.125a4.3,4.3,0,0,0,.125.675h0a2.68,2.68,0,0,1-4.475-2.95ZM88,81.178a2.475,2.475,0,0,1,2.375-3.1l.525.05.075.05a3.95,3.95,0,0,0,.55.4l.625.275h.075a2.45,2.45,0,0,1,.625,1.35,3.95,3.95,0,0,0,0,.55,2.6,2.6,0,0,1-.325.95A2.425,2.425,0,0,1,90.7,82.928h-.05a2.425,2.425,0,0,1-1.525-.325A2.45,2.45,0,0,1,88,81.2Zm7.8,5.475h0a2.45,2.45,0,0,1-3.375.9,2.475,2.475,0,0,1-1.1-2.975h0l.6-.2.15-.075.525-.275h.025l.5-.4.1-.1.4-.45h.025a4.125,4.125,0,0,0,.475.5l.125.125a3.8,3.8,0,0,0,1.25.725l.2.075.225.075a2.475,2.475,0,0,1-.125,2.1Zm3.325-4.925a2.457,2.457,0,0,1-4.275,0v-.05a2.45,2.45,0,0,1-.275-.875,4.451,4.451,0,0,0,0-.55,2.45,2.45,0,0,1,.325-.975,2.425,2.425,0,0,1,.275-.375l.075-.05.65-.3h.05l.525-.375.075-.05a2.45,2.45,0,0,1,1,0h0l.075.05.4.2.175.075.225.075a2.45,2.45,0,0,1,.7,3.225Zm2.925-6.1h0a2.675,2.675,0,0,1-3.075,1.225H98.9l-.25-.075h0l-.375-.2a2.725,2.725,0,0,1-.5-.4h0a4.326,4.326,0,0,0,.175-.75v-.2a4.326,4.326,0,0,0,0-.75v-.05a4.35,4.35,0,0,0-.15-.75l-.05-.175a4.276,4.276,0,0,0-.3-.725l.175-.225.175-.2.3-.25.2-.15.375-.175.175-.075a2.5,2.5,0,0,1,.6-.125h.125a2.55,2.55,0,0,1,1,.15h.075l.4.175a2.7,2.7,0,0,1,1,3.75Zm.775-6.875h0a2.7,2.7,0,0,1-1.85,1.325,4.2,4.2,0,0,0-1.225-.2h-.425l-.25-.125-.425-.3h0v-.075a5.15,5.15,0,0,0,.15-.825v-.075a5.2,5.2,0,0,0,0-.875v-.05a5.2,5.2,0,0,0-.15-.825v-.1a5.149,5.149,0,0,0-.325-.775v-.075a2.732,2.732,0,1,1,4.55,3.025Z" transform="translate(-66.888 -52.923)"/><path class="b" d="M111.729,23.985a.85.85,0,0,0-1.025-.625,18.45,18.45,0,0,0-4.25,1.55c-6.3,1.625-9.1-1.725-9.225-1.875a.85.85,0,0,0-1.325,1.05,9.315,9.315,0,0,0,7.275,2.975h.55a5.9,5.9,0,0,0-.625.9,4.575,4.575,0,0,0-.425,3.5.85.85,0,0,0,.8.55l.275-.05a.85.85,0,0,0,.525-1.075,2.9,2.9,0,0,1,.35-2.175c.625-1.125,2.25-2.675,6.475-3.7A.85.85,0,0,0,111.729,23.985Z" transform="translate(-76.817 -22.78)"/><path class="b" d="M38.116,50.795l-.475-.25a5.7,5.7,0,0,1-2.075-7.75l.15-.25a5.55,5.55,0,0,1,6-8.9l-.2-.5c-3.775-10.25-13.225-8.275-13.325-8.25a.85.85,0,0,0-.625.525,6.491,6.491,0,0,0,.6,5.425c-4.525-.225-7.825,3.25-7.975,3.4a.85.85,0,0,0-.1,1.05,10.776,10.776,0,0,0,5.95,4.15c-3.375,4.325-3.4,10.7-3.4,10.975a.85.85,0,0,0,.85.85h0c.275,0,6.45-.05,10.8-3.35a11.208,11.208,0,0,0,3.25,5.45.85.85,0,0,0,.55.2h.15l-.1-.3a5.375,5.375,0,0,1-.025-2.475Z" transform="translate(-19.954 -24.24)"/></g></g></g></svg>