<svg xmlns="http://www.w3.org/2000/svg" width="115.45" height="48" viewBox="0 0 115.45 48"><defs><style>.a,.b{fill:#fff;}.a{fill-rule:evenodd;}</style></defs><g transform="translate(57.725 24)"><g transform="translate(-57.725 -24)"><g transform="translate(0 0.338)"><path class="a" d="M69,28.39H81.489a2,2,0,0,0,2.1-1.875V3.675a2,2,0,0,0-2.1-1.875H69a2,2,0,0,0-2.1,1.875V26.514A2.01,2.01,0,0,0,69,28.39Zm6.244-5.213a1.542,1.542,0,1,0,.019,0Z" transform="translate(-54.359 -1.8)"/><path class="a" d="M42.318,114.8c-2.438,3.582-5.438,2.681-14.157,10.351a19.986,19.986,0,0,0-6.976,11.888,20.085,20.085,0,0,0-6.976-11.888C5.49,117.481,2.471,118.4.052,114.8c0,0-.844,15.939,5.85,21.752,5.907,5.138,12.676,4.725,15.282,4.707s9.376.413,15.282-4.725C43.161,130.739,42.318,114.8,42.318,114.8Z" transform="translate(-0.018 -93.611)"/></g><path class="b" d="M297.057,27.258H285.881c-1.5,0-2.381-.506-2.381-2.138V2.825C283.519.931,284.981.8,285.881.8h1.706c1.706,0,2.138.994,2.138,2.025v19.2c2.025-.038,4.444-.075,7.332-.075,2.025,0,2.138,1.425,2.138,2.25v1.031C299.2,26.865,298.126,27.258,297.057,27.258Z" transform="translate(-230.343 -0.65)"/><path class="b" d="M395.8,27.258h-12.32c-1.5,0-2.381-.506-2.381-2.138V2.825C381.1.931,382.563.8,383.481.8H395.8c1.069,0,2.138.394,2.138,2.025V3.856c0,.825-.112,2.25-2.138,2.25-3.132,0-6.132-.075-8.476-.113v5.063c2.1-.038,4.519-.113,7.557-.113a1.952,1.952,0,0,1,2.175,2.25V13.7a1.952,1.952,0,0,1-2.175,2.25c-3.056,0-5.457-.075-7.557-.113v6.225c2.344-.038,5.344-.113,8.476-.113,2.025,0,2.138,1.425,2.138,2.25v1.031C397.939,26.865,396.87,27.258,395.8,27.258Z" transform="translate(-309.641 -0.65)"/><path class="b" d="M507.977,26.608H505.8a2.137,2.137,0,0,1-2.288-1.631L502.3,21.733c-1.894.038-3,.038-4.744.038s-3.244,0-4.744-.038L491.7,24.714c-.394,1.106-.825,1.894-2.456,1.894h-1.819c-1.819,0-2.025-.6-2.025-1.388a5.147,5.147,0,0,1,.356-1.313l8.157-21.883A2.506,2.506,0,0,1,496.688,0h1.631A2.534,2.534,0,0,1,501.1,1.988l8.588,22.3a2.307,2.307,0,0,1,.15.75C509.833,26.365,508.652,26.608,507.977,26.608Zm-10.5-18.339-3.038,8.794,3.094-.038,3.019.038Z" transform="translate(-394.384)"/></g></g></svg>