<svg xmlns="http://www.w3.org/2000/svg" width="123.186" height="48" viewBox="0 0 123.186 48"><defs><style>.a{fill:#fff;}</style></defs><g transform="translate(61.593 24)"><g transform="translate(-61.593 -24)"><path class="a" d="M1838.937,404.786c0-2.934-1.572-4.236-5.6-4.642-2.731-.276-3.247-.828-3.247-1.754,0-1.544,2.2-1.657,2.876-1.663a2.775,2.775,0,0,1,2.952,1.845c.1,0,2.634.015,2.819,0,0-.649-.925-4.572-5.774-4.572-3.556,0-5.853,1.732-5.853,4.415,0,3.435,2.7,4.16,5.61,4.433,3.083.288,3.313.9,3.313,1.8,0,1.016-1.265,1.757-3.01,1.754-2.94-.006-3.186-2.106-3.186-2.106l-3.034-.042c.064,1.159,1.016,4.87,6.223,4.87C1836.609,409.125,1838.937,407.423,1838.937,404.786Z" transform="translate(-1771.372 -382.046)"/><circle class="a" cx="1.742" cy="1.742" r="1.742" transform="translate(119.703 11.694)"/><path class="a" d="M3512.469,402.739a6.969,6.969,0,1,0-6.969-6.969A6.977,6.977,0,0,0,3512.469,402.739Zm0-10.935a3.966,3.966,0,1,1-3.966,3.966A3.966,3.966,0,0,1,3512.469,391.8Z" transform="translate(-3399.138 -377.003)"/><path class="a" d="M3574.734,886H3567v2.946c0,4.357,2.036,6.478,6.226,6.478h1.511c2.986,0,5.152-1.981,5.152-4.712S3577.72,886,3574.734,886Zm0,6.648h-1.511c-2.582,0-3.453-.907-3.453-3.589v-.285h4.961c1.15,0,2.382.51,2.382,1.939s-1.226,1.939-2.379,1.939Z" transform="translate(-3458.772 -859.118)"/><path class="a" d="M2296.792,408.413v-9.636c.064-1.535,1.475-2.081,2.685-2.081s2.546.522,2.676,1.966c0,.076.009,9.752.009,9.752h2.995s0-9.679-.006-9.752c.13-1.444,1.5-1.966,2.676-1.966,1.241,0,2.688.573,2.688,2.191v9.527h2.995v-9.527c0-3-2.391-5.185-5.683-5.185a6.351,6.351,0,0,1-8.344,0c-3.292,0-5.683,2.182-5.683,5.185v9.527Z" transform="translate(-2224.203 -381.755)"/><path class="a" d="M3025.051,398.537c-4.284,0-6.651,1.651-6.651,4.921,0,3.419,2.543,4.6,6.76,4.6a32.134,32.134,0,0,0,6.023-.6v-7.628c-.049-4.657-2.109-6.827-6.49-6.827-3.128,0-5.649,1.641-6.023,4.33h3.3c.282-1.374,1.993-1.5,2.682-1.5,2.321,0,3.41.834,3.538,3.064l-.04-.012A17.534,17.534,0,0,0,3025.051,398.537Zm3.119,6.611a13.463,13.463,0,0,1-3.231.249c-2.591,0-3.489-.765-3.489-2,0-1.347.789-2.094,3.79-2.094a10.3,10.3,0,0,1,2.931.422Z" transform="translate(-2926.818 -381.076)"/><path class="a" d="M2115.218,987.935a3.108,3.108,0,0,0-1.074-.746,4.014,4.014,0,0,0-1.611-.288H2110.9v6.3h1.942a3.473,3.473,0,0,0,1.214-.212,3,3,0,0,0,1.007-.61,2.918,2.918,0,0,0,.686-.962,3.063,3.063,0,0,0,.255-1.274,3.817,3.817,0,0,0-.185-1.162A2.8,2.8,0,0,0,2115.218,987.935Zm-.446,3.043a1.873,1.873,0,0,1-.47.664,2.007,2.007,0,0,1-.716.41,2.856,2.856,0,0,1-.907.14h-.716v-4.275h.846a2.48,2.48,0,0,1,.725.115,2.015,2.015,0,0,1,.692.37,1.967,1.967,0,0,1,.513.664,2.229,2.229,0,0,1,.2,1A2.278,2.278,0,0,1,2114.771,990.978Z" transform="translate(-2046.852 -956.956)"/><path class="a" d="M2287.052,982.934l-.431-1.01q-.237-.555-.489-1.135t-.489-1.135l-.431-1.01-.328-.759-.17-.385-.164.385-.325.759-.431,1.01q-.237.558-.489,1.135t-.489,1.135l-.431,1.01-.325.759q-.127.306-.164.385h1.044l.692-1.657h2.166l.234.564.206.5.161.379.091.215h1.044l-.164-.385Zm-3.052-1.4.631-1.5a1.18,1.18,0,0,1,.033-.115,1.842,1.842,0,0,0,.052-.194,1.721,1.721,0,0,0,.052.194.607.607,0,0,0,.042.115l.622,1.5Z" transform="translate(-2212.664 -947.841)"/><path class="a" d="M2465.039,986.8H2460.9v1.01h1.52V993.1h1.062V987.81h1.557Z" transform="translate(-2386.233 -956.859)"/><path class="a" d="M2595.252,982.934l-.431-1.01q-.237-.555-.488-1.135t-.489-1.135l-.431-1.01-.328-.759-.17-.385-.164.385-.325.759-.431,1.01q-.237.558-.489,1.135t-.489,1.135l-.431,1.01-.325.759q-.127.306-.164.385h1.044l.692-1.657H2594l.234.564.206.5.161.379.091.215h1.047l-.164-.385Zm-3.052-1.4.631-1.5a1.116,1.116,0,0,1,.033-.115,1.9,1.9,0,0,0,.052-.194,1.72,1.72,0,0,0,.052.194.608.608,0,0,0,.042.115l.622,1.5Z" transform="translate(-2511.513 -947.841)"/><path class="a" d="M2800.953,986.8H2799.9v6.3h4.111v-1h-3.058Z" transform="translate(-2714.947 -956.859)"/><path class="a" d="M2944.752,982.934l-.431-1.01q-.237-.555-.489-1.135t-.489-1.135l-.431-1.01-.328-.759-.17-.385-.164.385-.325.759-.431,1.01q-.237.558-.489,1.135t-.488,1.135l-.431,1.01-.325.759q-.127.306-.164.385h1.044l.692-1.657h2.166l.234.564.206.5.161.379.091.215h1.044l-.164-.385Zm-3.052-1.4.631-1.5a1.116,1.116,0,0,1,.033-.115,1.9,1.9,0,0,0,.052-.194,1.716,1.716,0,0,0,.052.194.606.606,0,0,0,.042.115l.622,1.5Z" transform="translate(-2850.408 -947.841)"/><path class="a" d="M3152.981,990.517a1.344,1.344,0,0,0-.391-.279,1.9,1.9,0,0,0-.437-.146,1.182,1.182,0,0,0,.431-.224,1.238,1.238,0,0,0,.279-.34,1.487,1.487,0,0,0,.155-.422,2.306,2.306,0,0,0,.049-.47,1.826,1.826,0,0,0-.143-.755,1.256,1.256,0,0,0-.41-.51,1.807,1.807,0,0,0-.646-.285,3.653,3.653,0,0,0-.846-.091h-1.72v6.3h1.969a3.232,3.232,0,0,0,.786-.094,1.947,1.947,0,0,0,.667-.3,1.573,1.573,0,0,0,.467-.531,1.623,1.623,0,0,0,.176-.783,1.6,1.6,0,0,0-.109-.616A1.35,1.35,0,0,0,3152.981,990.517Zm-2.625-2.57h.7a1.1,1.1,0,0,1,.7.2.747.747,0,0,1,.258.625.956.956,0,0,1-.212.622.8.8,0,0,1-.652.258h-.795Zm1.875,3.881a.745.745,0,0,1-.243.276,1.166,1.166,0,0,1-.364.164,1.677,1.677,0,0,1-.44.058h-.828v-1.769h.734a2.345,2.345,0,0,1,.452.042,1.206,1.206,0,0,1,.391.146.8.8,0,0,1,.276.273.783.783,0,0,1,.1.419.85.85,0,0,1-.082.394Z" transform="translate(-3053.747 -957.048)"/><path class="a" d="M3304.459,988.71a3.527,3.527,0,0,0-.746-.367q-.4-.143-.746-.282a2.486,2.486,0,0,1-.573-.31.537.537,0,0,1-.228-.449.621.621,0,0,1,.306-.528,1.445,1.445,0,0,1,.834-.206,3.086,3.086,0,0,1,.655.079,5.957,5.957,0,0,1,.716.206l.379-.865-.2-.073a4.141,4.141,0,0,0-.413-.133q-.252-.07-.564-.124a3.693,3.693,0,0,0-.652-.058,2.535,2.535,0,0,0-.928.155,2.014,2.014,0,0,0-.656.407,1.636,1.636,0,0,0-.391.564,1.672,1.672,0,0,0-.13.643,1.207,1.207,0,0,0,.228.755,1.974,1.974,0,0,0,.573.5,4.553,4.553,0,0,0,.746.349q.4.146.746.3a2.306,2.306,0,0,1,.573.346.622.622,0,0,1,.23.5.564.564,0,0,1-.17.422,1.23,1.23,0,0,1-.4.258,1.993,1.993,0,0,1-.479.13,2.478,2.478,0,0,1-1.135-.073,3.373,3.373,0,0,1-.777-.306l-.458.922a3.447,3.447,0,0,0,.765.346,4.082,4.082,0,0,0,.555.13,4.235,4.235,0,0,0,.692.052,3.921,3.921,0,0,0,1.083-.134,2.179,2.179,0,0,0,.764-.376,1.551,1.551,0,0,0,.452-.58,1.821,1.821,0,0,0,.152-.752,1.557,1.557,0,0,0-.231-.88A1.967,1.967,0,0,0,3304.459,988.71Z" transform="translate(-3200.649 -955.695)"/><path class="a" d="M24,0A24,24,0,1,0,48,24,24,24,0,0,0,24,0ZM11.76,16.1a2.036,2.036,0,0,1,4.072,0V28.712a.076.076,0,0,1-.052.073l-.061-.009A11.432,11.432,0,0,1,11.8,21.74,5.914,5.914,0,0,1,11.757,21ZM19,35.157a7.046,7.046,0,0,1-5.343-2.151c-1.223-1.387-2.066-3.125-1.869-6.338a.082.082,0,0,1,.161-.018c.273,1.1,1.129,3.447,3.517,4.069,3.143.822,6.2.437,8.062,1.411a4.755,4.755,0,0,1,2.27,3.025Zm15.817-1.535a8.816,8.816,0,0,1-5.252,1.5H28.026a.085.085,0,0,1-.085-.07l-.064-.316a6.854,6.854,0,0,0-3.368-4.491,7.482,7.482,0,0,0-1.893-.655.085.085,0,0,1-.067-.082V16.633a2.576,2.576,0,0,1,2.576-2.576h3.6A8.97,8.97,0,0,1,34,15.416a4.528,4.528,0,0,1,1.918,3.938,5.6,5.6,0,0,1-.658,2.761,5.047,5.047,0,0,1-1.86,1.905,6.679,6.679,0,0,1,2.591,2.018,4.669,4.669,0,0,1,.931,2.876,5.385,5.385,0,0,1-2.106,4.706Z"/><path class="a" d="M882.376,879.3h-2.291a.085.085,0,0,0-.085.085v4.409a.085.085,0,0,0,.085.085h2.576a4.269,4.269,0,0,0,2.361-.586,1.958,1.958,0,0,0,.9-1.76Q885.923,879.3,882.376,879.3Z" transform="translate(-853.3 -852.621)"/><path class="a" d="M880.085,599.909h2.433a2.266,2.266,0,0,0,1.775-.7,2.482,2.482,0,0,0,.628-1.732,1.934,1.934,0,0,0-.716-1.617,3.127,3.127,0,0,0-1.975-.558h-2.145a.085.085,0,0,0-.085.085v4.439A.085.085,0,0,0,880.085,599.909Z" transform="translate(-853.3 -577.238)"/></g></g></svg>