<svg xmlns="http://www.w3.org/2000/svg" width="123.186" height="48" viewBox="0 0 123.186 48"><defs><style>.a{fill:#fff;}</style></defs><g transform="translate(61.593 24)"><g transform="translate(-61.593 -24)"><path class="a" d="M1833.333,399.044c-2.731-.276-3.247-.828-3.247-1.754,0-1.544,2.2-1.657,2.876-1.663a2.775,2.775,0,0,1,2.952,1.845c.1,0,2.634.015,2.819,0,0-.649-.925-4.572-5.774-4.572-3.556,0-5.853,1.732-5.853,4.415,0,3.435,2.7,4.16,5.61,4.433,3.083.288,3.313.9,3.313,1.8,0,1.016-1.265,1.757-3.01,1.754-2.94-.006-3.186-2.106-3.186-2.106l-3.034-.039c.064,1.159,1.016,4.87,6.223,4.87,3.583,0,5.911-1.705,5.911-4.342C1838.937,400.752,1837.365,399.451,1833.333,399.044Z" transform="translate(-1771.372 -380.979)"/><circle class="a" cx="1.742" cy="1.742" r="1.742" transform="translate(119.703 11.663)"/><path class="a" d="M3512.469,401.739a6.969,6.969,0,1,0-6.969-6.969A6.977,6.977,0,0,0,3512.469,401.739Zm0-10.935a3.966,3.966,0,1,1-3.966,3.966,3.966,3.966,0,0,1,3.966-3.966Z" transform="translate(-3399.138 -376.034)"/><path class="a" d="M3574.734,885H3567v2.946c0,4.357,2.036,6.478,6.226,6.478h1.511c2.986,0,5.152-1.981,5.152-4.712S3577.72,885,3574.734,885Zm0,6.648h-1.511c-2.582,0-3.453-.907-3.453-3.589v-.285h4.961c1.15,0,2.382.51,2.382,1.939S3575.887,891.648,3574.734,891.648Z" transform="translate(-3458.772 -858.148)"/><path class="a" d="M2310.415,407.413h2.995v-9.527c0-3-2.391-5.185-5.683-5.185a6.351,6.351,0,0,1-8.344,0c-3.292,0-5.683,2.182-5.683,5.185v9.527h2.995v-9.636c.064-1.535,1.475-2.081,2.685-2.081s2.546.522,2.676,1.966c0,.076.009,9.752.009,9.752h2.995s0-9.679-.006-9.752c.13-1.444,1.5-1.966,2.676-1.966,1.241,0,2.688.573,2.688,2.191Z" transform="translate(-2224.106 -380.785)"/><path class="a" d="M3024.693,392c-3.128,0-5.649,1.641-6.023,4.33h3.3c.282-1.374,1.993-1.5,2.682-1.5,2.321,0,3.41.834,3.538,3.064l-.04-.012a17.212,17.212,0,0,0-3.095-.343c-4.284,0-6.651,1.651-6.651,4.921,0,3.419,2.543,4.6,6.76,4.6a32.137,32.137,0,0,0,6.023-.6v-7.625C3031.135,394.169,3029.071,392,3024.693,392Zm.246,12.4c-2.591,0-3.489-.765-3.489-2,0-1.347.789-2.094,3.79-2.094a10.3,10.3,0,0,1,2.931.422v3.426A13.463,13.463,0,0,1,3024.939,404.4Z" transform="translate(-2926.818 -380.106)"/><path class="a" d="M24,0A24,24,0,1,0,48,24,24,24,0,0,0,24,0Zm5.046,25.869h-.13l-.325-.009H26.012c-4.406,0-5.9,1.532-5.9,6.071l.018,2.779A2.376,2.376,0,0,1,17.759,37.1h0a2.376,2.376,0,0,1-2.376-2.376v-2.6c0-7.37,3.477-10.953,10.629-10.953h2.579q.3,0,.6.015A2.345,2.345,0,0,1,29.046,25.869Zm2.318-9.045c-2.527,1.323-6.684.8-10.959,1.918-3.24.85-4.406,4.041-4.779,5.534a.112.112,0,0,1-.221-.024c-.27-4.369.877-6.733,2.54-8.617A9.574,9.574,0,0,1,25.2,12.713H34.45A6.459,6.459,0,0,1,31.364,16.824Z"/><path class="a" d="M2294.832,992.986h2.673V991.8H2293.6v6.244h1.232v-2.452h2.315V994.4h-2.315Z" transform="translate(-2224.009 -961.707)"/><path class="a" d="M2421.419,983.7l-2.819,6.493h1.214l.51-1.223h2.069l.485,1.223h1.426l-2.819-6.493Zm-.662,4.236.628-1.52.6,1.52Z" transform="translate(-2345.217 -953.853)"/><path class="a" d="M2640.593,994.889a2.464,2.464,0,0,0,.243-1.083,1.949,1.949,0,0,0-.64-1.541,2.636,2.636,0,0,0-1.8-.564H2636.5v6.244h1.232V995.96h.822l1.317,1.984h1.432l-1.45-2.266A1.794,1.794,0,0,0,2640.593,994.889Zm-1.259-.407a.884.884,0,0,1-.731.294h-.874v-1.884h.883a.824.824,0,0,1,.756.31,1.2,1.2,0,0,1,.194.649A1.007,1.007,0,0,1,2639.334,994.482Z" transform="translate(-2556.505 -961.611)"/><path class="a" d="M2831.474,987.888l-3.165-4.487h-.009v6.5h1.189v-2.791l1.96,2.706h.018l2.036-2.892V989.9h1.229v-6.5h-.015Z" transform="translate(-2742.486 -953.562)"/><path class="a" d="M3094.729,995.508h2.682v-1.189h-2.682v-1.332h3.031V991.8h-4.26v6.244h4.378v-1.186h-3.149Z" transform="translate(-2999.639 -961.707)"/><path class="a" d="M3283.893,994.889a2.467,2.467,0,0,0,.243-1.083,1.949,1.949,0,0,0-.64-1.541,2.636,2.636,0,0,0-1.8-.564H3279.8v6.244h1.232V995.96h.822l1.317,1.984h1.429l-1.45-2.266a1.792,1.792,0,0,0,.743-.789Zm-1.259-.407a.884.884,0,0,1-.731.294h-.874v-1.884h.883a.824.824,0,0,1,.756.31,1.2,1.2,0,0,1,.194.649A1.007,1.007,0,0,1,3282.634,994.482Z" transform="translate(-3180.287 -961.611)"/></g></g></svg>