<svg xmlns="http://www.w3.org/2000/svg" width="123.186" height="48" viewBox="0 0 123.186 48"><defs><style>.a{fill:#222;}.b{fill:#ff671f;}.c{fill:#fff;}</style></defs><g transform="translate(61.593 24)"><g transform="translate(-61.593 -24)"><g transform="translate(55.428 11.663)"><path class="a" d="M1833.333,399.044c-2.731-.276-3.247-.828-3.247-1.754,0-1.544,2.2-1.657,2.876-1.663a2.775,2.775,0,0,1,2.952,1.845c.1,0,2.634.015,2.819,0,0-.649-.925-4.572-5.774-4.572-3.556,0-5.853,1.732-5.853,4.415,0,3.435,2.7,4.16,5.61,4.433,3.083.288,3.313.9,3.313,1.8,0,1.016-1.265,1.757-3.01,1.754-2.94-.006-3.186-2.106-3.186-2.106l-3.034-.039c.064,1.159,1.016,4.87,6.223,4.87,3.583,0,5.911-1.705,5.911-4.342C1838.937,400.752,1837.365,399.451,1833.333,399.044Z" transform="translate(-1826.8 -392.642)"/><g transform="translate(50.934)"><circle class="a" cx="1.742" cy="1.742" r="1.742" transform="translate(13.341)"/><path class="a" d="M3512.469,401.739a6.969,6.969,0,1,0-6.969-6.969A6.977,6.977,0,0,0,3512.469,401.739Zm0-10.935a3.966,3.966,0,1,1-3.966,3.966,3.966,3.966,0,0,1,3.966-3.966Z" transform="translate(-3505.5 -387.697)"/><path class="a" d="M3574.734,885H3567v2.946c0,4.357,2.036,6.478,6.226,6.478h1.511c2.986,0,5.152-1.981,5.152-4.712S3577.72,885,3574.734,885Zm0,6.648h-1.511c-2.582,0-3.453-.907-3.453-3.589v-.285h4.961c1.15,0,2.382.51,2.382,1.939S3575.887,891.648,3574.734,891.648Z" transform="translate(-3565.134 -869.811)"/></g><path class="a" d="M2313.41,397.785c0-3-2.391-5.185-5.683-5.185a6.351,6.351,0,0,1-8.344,0c-3.292,0-5.683,2.182-5.683,5.185v9.527h2.995v-9.633c.064-1.535,1.475-2.081,2.685-2.081s2.546.522,2.676,1.966c0,.076.009,9.752.009,9.752h2.995s0-9.679-.006-9.752c.13-1.444,1.5-1.966,2.676-1.966,1.241,0,2.688.573,2.688,2.191v9.527h2.995Z" transform="translate(-2279.534 -392.351)"/><path class="a" d="M3031.183,398.827c-.048-4.657-2.109-6.827-6.49-6.827-3.128,0-5.649,1.641-6.023,4.33h3.3c.282-1.374,1.993-1.5,2.682-1.5,2.321,0,3.41.834,3.538,3.064l-.04-.012a17.212,17.212,0,0,0-3.095-.343c-4.284,0-6.651,1.651-6.651,4.921,0,3.419,2.543,4.6,6.76,4.6a32.137,32.137,0,0,0,6.023-.6Zm-6.244,5.571c-2.591,0-3.489-.765-3.489-2,0-1.347.789-2.094,3.79-2.094a10.3,10.3,0,0,1,2.931.422v3.426A13.463,13.463,0,0,1,3024.939,404.4Z" transform="translate(-2982.245 -391.769)"/></g><circle class="b" cx="24" cy="24" r="24"/><path class="c" d="M512.03,708.559c0-4.539,1.487-6.071,5.9-6.071H520.5l.325.009h.13a2.343,2.343,0,0,0,.146-4.682q-.294-.015-.6-.015h-2.579c-7.151,0-10.629,3.583-10.629,10.953v2.6a2.376,2.376,0,0,0,2.376,2.376h0a2.376,2.376,0,0,0,2.376-2.391Z" transform="translate(-491.908 -676.628)"/><path class="c" d="M506.54,430.442a.112.112,0,0,0,.221.024c.373-1.493,1.535-4.685,4.779-5.534,4.275-1.117,8.432-.595,10.959-1.918a6.479,6.479,0,0,0,3.089-4.114h-9.248a9.581,9.581,0,0,0-7.261,2.922C507.417,423.712,506.27,426.073,506.54,430.442Z" transform="translate(-491.133 -406.19)"/><g transform="translate(69.591 29.838)"><path class="a" d="M2297.5,991.8v1.189h-2.673v1.417h2.318V995.6h-2.318v2.452H2293.6V991.8Z" transform="translate(-2293.6 -991.545)"/><path class="a" d="M2422.492,988.87h-2.069l-.51,1.223H2418.7l2.819-6.493h.067l2.819,6.493h-1.426Zm-.406-1.035-.6-1.52-.628,1.52Z" transform="translate(-2414.904 -983.594)"/><path class="a" d="M2639.771,998.044l-1.317-1.984h-.822v1.984H2636.4V991.8h1.893a2.636,2.636,0,0,1,1.8.564,1.949,1.949,0,0,1,.64,1.541,2.467,2.467,0,0,1-.243,1.083,1.793,1.793,0,0,1-.743.795l1.45,2.266Zm-2.136-3.174h.874a.871.871,0,0,0,.731-.294,1.007,1.007,0,0,0,.228-.631,1.2,1.2,0,0,0-.194-.649.828.828,0,0,0-.755-.31h-.883Z" transform="translate(-2625.999 -991.545)"/><path class="a" d="M2834.635,983.4v6.5H2833.4V986.92l-2.036,2.895h-.018l-1.96-2.706V989.9H2828.2v-6.5h.009l3.165,4.487,3.24-4.487Z" transform="translate(-2811.979 -983.4)"/><path class="a" d="M3097.76,991.8v1.189h-3.031v1.332h2.682v1.186h-2.682v1.35h3.149v1.189H3093.5V991.8Z" transform="translate(-3069.23 -991.545)"/><path class="a" d="M3283.071,998.044l-1.317-1.984h-.822v1.984H3279.7V991.8h1.893a2.636,2.636,0,0,1,1.8.564,1.949,1.949,0,0,1,.64,1.541,2.467,2.467,0,0,1-.243,1.083,1.793,1.793,0,0,1-.743.795l1.45,2.266Zm-2.139-3.174h.874a.872.872,0,0,0,.731-.294,1.007,1.007,0,0,0,.228-.631,1.2,1.2,0,0,0-.194-.649.828.828,0,0,0-.756-.31h-.883Z" transform="translate(-3249.78 -991.545)"/></g></g></g></svg>