<svg xmlns="http://www.w3.org/2000/svg" width="123.186" height="48" viewBox="0 0 123.186 48"><defs><style>.a{fill:#fff;}</style></defs><g transform="translate(61.593 24)"><g transform="translate(-61.593 -24)"><path class="a" d="M1833.024,406.3c-2.94-.006-3.186-2.106-3.186-2.106l-3.037-.039c.063,1.159,1.016,4.87,6.223,4.87,3.583,0,5.911-1.705,5.911-4.342,0-2.934-1.572-4.236-5.6-4.642-2.731-.276-3.247-.828-3.247-1.754,0-1.544,2.2-1.657,2.876-1.663a2.775,2.775,0,0,1,2.953,1.845c.1,0,2.633.015,2.819,0,0-.649-.925-4.572-5.774-4.572-3.556,0-5.853,1.732-5.853,4.415,0,3.435,2.7,4.16,5.61,4.433,3.083.288,3.313.9,3.313,1.8C1836.034,405.563,1834.768,406.306,1833.024,406.3Z" transform="translate(-1771.373 -381.948)"/><ellipse class="a" cx="1.742" cy="1.742" rx="1.742" ry="1.742" transform="translate(119.703 11.694)"/><path class="a" d="M3512.47,402.739a6.969,6.969,0,1,0-6.97-6.969A6.977,6.977,0,0,0,3512.47,402.739Zm0-10.935a3.966,3.966,0,1,1-3.966,3.966A3.965,3.965,0,0,1,3512.47,391.8Z" transform="translate(-3399.139 -377.003)"/><path class="a" d="M3574.733,886H3567v2.946c0,4.357,2.036,6.478,6.225,6.478h1.512c2.986,0,5.152-1.982,5.152-4.712S3577.72,886,3574.733,886Zm0,6.648h-1.51c-2.582,0-3.453-.907-3.453-3.59v-.285h4.961c1.149,0,2.381.51,2.381,1.939s-1.224,1.939-2.378,1.939Z" transform="translate(-3458.772 -859.116)"/><path class="a" d="M2307.73,396.694c1.241,0,2.689.573,2.689,2.191v9.527h2.994v-9.527c0-3-2.39-5.185-5.683-5.185a6.351,6.351,0,0,1-8.344,0c-3.292,0-5.683,2.182-5.683,5.185v9.527h2.995v-9.636c.063-1.535,1.475-2.081,2.685-2.081s2.546.522,2.677,1.966c0,.076.009,9.752.009,9.752h2.995s0-9.679-.006-9.752C2305.184,397.216,2306.549,396.694,2307.73,396.694Z" transform="translate(-2224.109 -381.754)"/><path class="a" d="M3024.691,393.1c-3.128,0-5.649,1.641-6.023,4.33h3.3c.282-1.375,1.992-1.5,2.681-1.5,2.322,0,3.41.835,3.538,3.065l-.04-.012a17.2,17.2,0,0,0-3.094-.343c-4.284,0-6.652,1.651-6.652,4.921,0,3.42,2.543,4.6,6.76,4.6a32.143,32.143,0,0,0,6.023-.6v-7.628C3031.133,395.269,3029.07,393.1,3024.691,393.1Zm.246,12.4c-2.591,0-3.489-.765-3.489-2,0-1.347.788-2.094,3.789-2.094a10.3,10.3,0,0,1,2.931.422v3.423a13.456,13.456,0,0,1-3.231.249Z" transform="translate(-2926.816 -381.172)"/><path class="a" d="M24,0A24,24,0,1,0,48,24,24,24,0,0,0,24,0Zm9.075,31.971a10.612,10.612,0,0,1-3.35,3.149,11.42,11.42,0,0,1-6.184,1.45H17.58A2.57,2.57,0,0,1,15.01,34V12.558a.525.525,0,0,1,.525-.525h0a.525.525,0,0,1,.513.422l.012.058a8.077,8.077,0,0,0,3.738,5.14.085.085,0,0,1,.042.073V31.9H22.71a8.731,8.731,0,0,0,5.968-1.933,7,7,0,0,0,2.2-5.568A7.83,7.83,0,0,0,29.6,19.658a.088.088,0,0,1,.085-.137,5.767,5.767,0,0,1,3.6,2.464A8.5,8.5,0,0,1,33.075,31.971Zm2.33-9.527a.1.1,0,0,1-.2.021c-.334-1.341-1.381-4.214-4.3-4.976-3.844-1-7.579-.534-9.852-1.72a5.814,5.814,0,0,1-2.776-3.7h8.31A8.611,8.611,0,0,1,33.121,14.7c1.5,1.7,2.527,3.82,2.285,7.749Z"/><path class="a" d="M1830.31,1000.725a3.488,3.488,0,0,0-1.8-.425H1826.8v5.722h1.99a3.108,3.108,0,0,0,1.441-.337,2.618,2.618,0,0,0,1.047-.968,2.712,2.712,0,0,0,.388-1.453,3.286,3.286,0,0,0-.322-1.441A2.578,2.578,0,0,0,1830.31,1000.725Zm-.328,3.759a2.031,2.031,0,0,1-1.392.452h-.668v-3.556h.917a1.873,1.873,0,0,1,.71.155,1.531,1.531,0,0,1,.662.558,1.858,1.858,0,0,1,.285,1.089A1.642,1.642,0,0,1,1829.982,1004.485Z" transform="translate(-1771.37 -969.95)"/><rect class="a" width="1.126" height="5.722" transform="translate(61.42 30.35)"/><path class="a" d="M2091.481,992.9l-2.582,5.947h1.111l.467-1.119h1.9l.443,1.119h1.3l-2.582-5.947Zm-.607,3.88.577-1.392.552,1.392Z" transform="translate(-2025.519 -962.773)"/><path class="a" d="M2272.163,1002.174h.986v.692a1.61,1.61,0,0,1-.786.148,2.307,2.307,0,0,1-.983-.209,1.582,1.582,0,0,1-.671-.6,1.733,1.733,0,0,1-.239-.922,1.816,1.816,0,0,1,.494-1.384,2,2,0,0,1,1.426-.467,2.607,2.607,0,0,1,.656.106,2.9,2.9,0,0,1,.618.231l.368-1.05a3.618,3.618,0,0,0-.808-.3,3.94,3.94,0,0,0-.979-.115,3.18,3.18,0,0,0-1.478.346,2.56,2.56,0,0,0-1.065,1.041,3.375,3.375,0,0,0-.4,1.7,2.734,2.734,0,0,0,.373,1.426,2.586,2.586,0,0,0,1.062.98,3.443,3.443,0,0,0,1.6.355,3.228,3.228,0,0,0,.743-.1,4.205,4.205,0,0,0,.747-.249,1.543,1.543,0,0,0,.47-.291v-2.418h-2.13Z" transform="translate(-2200.451 -968.007)"/><path class="a" d="M2480.045,996.567l-4-3.668H2476v5.947h1.144l-.024-3.383,4.005,3.617h.03v-5.956h-1.134Z" transform="translate(-2400.875 -962.773)"/><path class="a" d="M2687.419,998.691a2.852,2.852,0,0,0-2.916,0,2.973,2.973,0,0,0-1.065,1.077,2.9,2.9,0,0,0,0,2.916,2.946,2.946,0,0,0,1.062,1.062,2.91,2.91,0,0,0,2.919,0,2.98,2.98,0,0,0,1.074-1.062,2.855,2.855,0,0,0,0-2.916A3.031,3.031,0,0,0,2687.419,998.691Zm.082,3.453a1.73,1.73,0,0,1-.622.661,1.632,1.632,0,0,1-.876.246,1.726,1.726,0,0,1-.907-.246,1.79,1.79,0,0,1-.646-.665,1.832,1.832,0,0,1-.236-.916,1.892,1.892,0,0,1,.233-.935,1.782,1.782,0,0,1,.635-.664,1.742,1.742,0,0,1,1.781,0,1.77,1.77,0,0,1,.634.664,1.988,1.988,0,0,1,.009,1.854Z" transform="translate(-2601.637 -968.001)"/><path class="a" d="M2898.463,1000.447a.974.974,0,0,1,.579-.149,2.785,2.785,0,0,1,1.3.413l.428-.861a3.66,3.66,0,0,0-.832-.41,3.407,3.407,0,0,0-1.064-.143,1.987,1.987,0,0,0-1.3.489,1.525,1.525,0,0,0-.486,1.189,1.426,1.426,0,0,0,.236.84,1.687,1.687,0,0,0,.565.513,7.42,7.42,0,0,0,.816.373q.831.328.831.771a.529.529,0,0,1-.264.495,1.2,1.2,0,0,1-.622.151,1.819,1.819,0,0,1-.684-.139,2.7,2.7,0,0,1-.676-.358l-.5.88a3.166,3.166,0,0,0,.941.461,3.5,3.5,0,0,0,1.019.151,2.337,2.337,0,0,0,1.056-.221,1.61,1.61,0,0,0,.674-.6,1.552,1.552,0,0,0,.227-.819,1.682,1.682,0,0,0-.191-.846,1.508,1.508,0,0,0-.476-.525,3.36,3.36,0,0,0-.691-.337,3.655,3.655,0,0,1-.8-.391.584.584,0,0,1-.3-.479A.516.516,0,0,1,2898.463,1000.447Z" transform="translate(-2808.904 -968.977)"/><path class="a" d="M3049.4,1001.39h1.338v4.633h1.13v-4.633h1.389V1000.3H3049.4Z" transform="translate(-2956.875 -969.95)"/><rect class="a" width="1.129" height="5.722" transform="translate(97.469 30.35)"/><path class="a" d="M3290.443,1002.916a1.978,1.978,0,0,1-.752.137,1.731,1.731,0,0,1-.911-.234,1.559,1.559,0,0,1-.6-.649,2.129,2.129,0,0,1-.209-.968,1.909,1.909,0,0,1,.225-.922,1.752,1.752,0,0,1,.607-.659,1.5,1.5,0,0,1,.816-.24,2.058,2.058,0,0,1,1.259.467l.443-1.065a3.367,3.367,0,0,0-.777-.349,3.2,3.2,0,0,0-.965-.14,2.77,2.77,0,0,0-1.453.376,2.58,2.58,0,0,0-.981,1.052,3.306,3.306,0,0,0-.349,1.539,3.021,3.021,0,0,0,.349,1.441,2.629,2.629,0,0,0,1.01,1.047,3.012,3.012,0,0,0,1.553.388,2.9,2.9,0,0,0,1.035-.179,2.539,2.539,0,0,0,.692-.358l-.467-1.01A1.661,1.661,0,0,1,3290.443,1002.916Z" transform="translate(-3187.073 -968.005)"/></g></g></svg>