<svg xmlns="http://www.w3.org/2000/svg" width="123.186" height="48" viewBox="0 0 123.186 48"><defs><style>.a{fill:#222;}.b{fill:#ff671f;}.c{fill:#fff;}</style></defs><g transform="translate(61.593 24)"><g transform="translate(-61.593 -24)"><g transform="translate(54.641 11.744)"><path class="a" d="M1833.409,400.07c-2.762-.277-3.284-.832-3.284-1.761,0-1.551,2.226-1.664,2.91-1.67a2.805,2.805,0,0,1,2.986,1.853c.1,0,2.664.015,2.851,0,0-.652-.936-4.592-5.841-4.592-3.6,0-5.92,1.74-5.92,4.434,0,3.449,2.728,4.178,5.675,4.452,3.118.289,3.352.905,3.352,1.81,0,1.021-1.28,1.764-3.045,1.761-2.974-.006-3.222-2.115-3.222-2.115l-3.07-.04c.064,1.164,1.028,4.891,6.3,4.891,3.625,0,5.979-1.713,5.979-4.361C1839.078,401.786,1837.489,400.478,1833.409,400.07Z" transform="translate(-1826.801 -393.64)"/><g transform="translate(51.525)"><ellipse class="a" cx="1.762" cy="1.749" rx="1.762" ry="1.749" transform="translate(13.496)"/><path class="a" d="M3512.55,402.8a7,7,0,1,0-7.05-7A7.033,7.033,0,0,0,3512.55,402.8Zm0-10.982a3.983,3.983,0,1,1-4.012,3.983A4,4,0,0,1,3512.55,391.817Z" transform="translate(-3505.5 -388.696)"/><path class="a" d="M3574.823,886H3567v2.959c0,4.376,2.059,6.506,6.3,6.506h1.529c3.02,0,5.212-1.99,5.212-4.733S3577.845,886,3574.823,886Zm0,6.677H3573.3c-2.613,0-3.494-.911-3.494-3.6v-.286h5.019c1.164,0,2.41.512,2.41,1.947s-1.24,1.947-2.407,1.947Z" transform="translate(-3565.112 -870.743)"/></g><path class="a" d="M2313.642,398.907c0-3.017-2.418-5.208-5.749-5.208a6.46,6.46,0,0,1-8.441,0c-3.331,0-5.748,2.191-5.748,5.208v9.568h3.029V398.8c.064-1.542,1.492-2.09,2.716-2.09s2.574.524,2.707,1.975c0,.076.009,9.794.009,9.794h3.029s0-9.721-.006-9.794c.132-1.45,1.513-1.975,2.708-1.975,1.255,0,2.719.576,2.719,2.2v9.568h3.03Z" transform="translate(-2279.373 -393.446)"/><path class="a" d="M3031.331,399.856c-.049-4.678-2.134-6.856-6.566-6.856-3.165,0-5.714,1.649-6.093,4.349h3.334c.285-1.38,2.016-1.512,2.713-1.512,2.348,0,3.45.838,3.579,3.078l-.041-.012a17.523,17.523,0,0,0-3.13-.344c-4.334,0-6.729,1.658-6.729,4.943,0,3.434,2.572,4.617,6.839,4.617a32.731,32.731,0,0,0,6.093-.6Zm-6.317,5.595c-2.621,0-3.529-.768-3.529-2.011,0-1.353.8-2.1,3.833-2.1a10.486,10.486,0,0,1,2.965.424v3.44A13.7,13.7,0,0,1,3025.014,405.451Z" transform="translate(-2981.824 -392.768)"/></g><ellipse class="b" cx="24.033" cy="24" rx="24.033" ry="24" transform="translate(0)"/><path class="c" d="M619.717,408.243c-.338-1.347-1.4-4.233-4.346-5-3.886-1.009-7.664-.539-9.963-1.731A5.838,5.838,0,0,1,602.6,397.8h8.407a8.744,8.744,0,0,1,6.6,2.639c1.513,1.7,2.557,3.836,2.308,7.783A.1.1,0,0,1,619.717,408.243Z" transform="translate(-585.534 -385.678)"/><g transform="translate(13.751 12.089)"><path class="c" d="M509.453,404.22a.089.089,0,0,0-.088.041.088.088,0,0,0,0,.1,7.863,7.863,0,0,1,1.289,4.763,7.021,7.021,0,0,1-2.225,5.592,8.867,8.867,0,0,1-6.038,1.941h-2.9V402.416a.086.086,0,0,0-.043-.073,8.091,8.091,0,0,1-3.782-5.162l-.012-.058a.53.53,0,0,0-.522-.424h0a.529.529,0,0,0-.531.527v21.535a2.59,2.59,0,0,0,2.6,2.581h6.034a11.621,11.621,0,0,0,6.255-1.457,10.738,10.738,0,0,0,3.389-3.163A8.484,8.484,0,0,0,513.1,406.7,5.807,5.807,0,0,0,509.453,404.22Z" transform="translate(-494.601 -396.699)"/><path class="c" d="M1162.9,909" transform="translate(-1142.388 -893.389)"/></g><g transform="translate(54.638 30.256)"><path class="a" d="M1826.7,1000.3h1.732a3.513,3.513,0,0,1,1.823.427,2.581,2.581,0,0,1,1.04,1.1,3.281,3.281,0,0,1,.326,1.447,2.712,2.712,0,0,1-.393,1.459,2.629,2.629,0,0,1-1.059.972,3.158,3.158,0,0,1-1.458.338H1826.7Zm1.817,4.653a2.072,2.072,0,0,0,1.409-.454,1.629,1.629,0,0,0,.519-1.3,1.858,1.858,0,0,0-.288-1.094,1.55,1.55,0,0,0-.67-.561,1.893,1.893,0,0,0-.718-.155h-.927v3.568Z" transform="translate(-1826.699 -1000.073)"/><path class="a" d="M2025.541,1000.3v5.747H2024.4V1000.3Z" transform="translate(-2018.334 -1000.073)"/><path class="a" d="M2092.414,997.747h-1.919l-.472,1.124H2088.9l2.612-5.972h.065l2.612,5.972h-1.32Zm-.378-.954-.559-1.4-.583,1.4Z" transform="translate(-2080.851 -992.898)"/><path class="a" d="M2273.772,1003.822a4.257,4.257,0,0,1-.755.25,3.306,3.306,0,0,1-.751.1,3.507,3.507,0,0,1-1.619-.357,2.6,2.6,0,0,1-1.074-.984,2.719,2.719,0,0,1-.378-1.432,3.38,3.38,0,0,1,.4-1.707,2.582,2.582,0,0,1,1.077-1.045,3.22,3.22,0,0,1,1.5-.347,4.039,4.039,0,0,1,.991.116,3.676,3.676,0,0,1,.816.3l-.372,1.054a2.861,2.861,0,0,0-.626-.231,2.65,2.65,0,0,0-.663-.107,2.032,2.032,0,0,0-1.442.469,1.816,1.816,0,0,0-.5,1.39,1.73,1.73,0,0,0,.243.926,1.588,1.588,0,0,0,.678.606,2.256,2.256,0,0,0,.994.21,1.564,1.564,0,0,0,.795-.149v-.695h-1V1001.1h2.155v2.429A1.457,1.457,0,0,1,2273.772,1003.822Z" transform="translate(-2255.614 -998.133)"/><path class="a" d="M2481.215,993.22V999.2h-.031l-4.048-3.63.024,3.4H2476V993h.046l4.043,3.684-.025-3.459Z" transform="translate(-2456.071 -992.995)"/><path class="a" d="M2683.449,999.776a3,3,0,0,1,1.077-1.082,2.9,2.9,0,0,1,2.95,0,3.054,3.054,0,0,1,1.086,1.082,2.846,2.846,0,0,1,0,2.928,3,3,0,0,1-1.086,1.066,2.957,2.957,0,0,1-4.027-1.066A2.893,2.893,0,0,1,2683.449,999.776Zm1.022,2.383a1.8,1.8,0,0,0,.654.667,1.756,1.756,0,0,0,.917.247,1.657,1.657,0,0,0,.886-.247,1.735,1.735,0,0,0,.629-.664,1.981,1.981,0,0,0-.009-1.862,1.793,1.793,0,0,0-.641-.667,1.773,1.773,0,0,0-1.8,0,1.8,1.8,0,0,0-.642.667,1.881,1.881,0,0,0-.236.939,1.838,1.838,0,0,0,.242.917Z" transform="translate(-2656.766 -998.127)"/><path class="a" d="M2899.068,1000.109a1,1,0,0,0-.586.149.51.51,0,0,0-.209.445.585.585,0,0,0,.3.481,3.788,3.788,0,0,0,.808.393,3.374,3.374,0,0,1,.7.338,1.527,1.527,0,0,1,.482.527,1.693,1.693,0,0,1,.193.85,1.555,1.555,0,0,1-.231.823,1.62,1.62,0,0,1-.681.6,2.38,2.38,0,0,1-1.067.222,3.566,3.566,0,0,1-1.031-.152,3.207,3.207,0,0,1-.952-.463l.5-.884a2.73,2.73,0,0,0,.684.359,2.034,2.034,0,0,0,.69.14,1.249,1.249,0,0,0,.63-.152.528.528,0,0,0,.267-.5q0-.445-.842-.774a7.511,7.511,0,0,1-.826-.375,1.692,1.692,0,0,1-.57-.515,1.412,1.412,0,0,1-.24-.844,1.552,1.552,0,0,1,.491-1.194,1.991,1.991,0,0,1,1.31-.49,3.487,3.487,0,0,1,1.079.143,3.709,3.709,0,0,1,.84.411l-.432.865A2.86,2.86,0,0,0,2899.068,1000.109Z" transform="translate(-2863.952 -998.909)"/><path class="a" d="M3053.2,1000.3v1.094h-1.409v4.653h-1.142v-4.653H3049.3V1000.3Z" transform="translate(-3011.771 -1000.073)"/><path class="a" d="M3213.54,1000.3v5.747H3212.4V1000.3Z" transform="translate(-3169.866 -1000.073)"/><path class="a" d="M3290.792,1004.082a2.951,2.951,0,0,1-1.047.18,3.055,3.055,0,0,1-1.571-.39,2.65,2.65,0,0,1-1.022-1.052,3.013,3.013,0,0,1-.353-1.447,3.3,3.3,0,0,1,.353-1.545,2.6,2.6,0,0,1,.992-1.057,2.817,2.817,0,0,1,1.469-.378,3.25,3.25,0,0,1,.977.14,3.4,3.4,0,0,1,.785.35l-.448,1.07a2.1,2.1,0,0,0-1.273-.469,1.518,1.518,0,0,0-.825.241,1.761,1.761,0,0,0-.614.661,1.9,1.9,0,0,0-.228.927,2.12,2.12,0,0,0,.212.972,1.573,1.573,0,0,0,.606.652,1.76,1.76,0,0,0,.92.234,2.018,2.018,0,0,0,.761-.137,1.705,1.705,0,0,0,.534-.323l.472,1.015A2.634,2.634,0,0,1,3290.792,1004.082Z" transform="translate(-3241.984 -998.226)"/></g></g></g></svg>