<svg xmlns="http://www.w3.org/2000/svg" width="123.186" height="48" viewBox="0 0 123.186 48"><defs><style>.a{fill:#222;}.b{fill:#ff671f;}.c{fill:#fff;}</style></defs><g transform="translate(61.593 24)"><g transform="translate(-61.593 -24)"><g transform="translate(55.428 11.694)"><path class="a" d="M1833.333,400.044c-2.731-.276-3.247-.828-3.247-1.754,0-1.544,2.2-1.657,2.876-1.663a2.775,2.775,0,0,1,2.952,1.845c.1,0,2.634.015,2.819,0,0-.649-.925-4.572-5.774-4.572-3.556,0-5.853,1.733-5.853,4.415,0,3.435,2.7,4.16,5.61,4.433,3.083.288,3.313.9,3.313,1.8,0,1.016-1.265,1.757-3.01,1.754-2.94-.006-3.186-2.106-3.186-2.106l-3.034-.039c.064,1.159,1.016,4.87,6.223,4.87,3.583,0,5.911-1.705,5.911-4.342C1838.937,401.752,1837.365,400.451,1833.333,400.044Z" transform="translate(-1826.8 -393.642)"/><g transform="translate(50.934)"><circle class="a" cx="1.742" cy="1.742" r="1.742" transform="translate(13.341)"/><path class="a" d="M3512.469,402.739a6.969,6.969,0,1,0-6.969-6.969A6.977,6.977,0,0,0,3512.469,402.739Zm0-10.935a3.966,3.966,0,1,1-3.966,3.966A3.966,3.966,0,0,1,3512.469,391.8Z" transform="translate(-3505.5 -388.697)"/><path class="a" d="M3574.737,886H3567v2.946c0,4.357,2.036,6.478,6.226,6.478h1.511c2.986,0,5.152-1.981,5.152-4.712S3577.72,886,3574.737,886Zm0,6.648h-1.511c-2.582,0-3.453-.907-3.453-3.589v-.285h4.964c1.15,0,2.382.51,2.382,1.939s-1.232,1.939-2.382,1.939Z" transform="translate(-3565.134 -870.811)"/></g><path class="a" d="M2313.41,398.885c0-3-2.391-5.185-5.683-5.185a6.351,6.351,0,0,1-8.344,0c-3.292,0-5.683,2.182-5.683,5.185v9.527h2.995v-9.636c.064-1.535,1.475-2.081,2.685-2.081s2.546.522,2.676,1.966c0,.076.009,9.752.009,9.752h2.995s0-9.679-.006-9.752c.13-1.444,1.5-1.966,2.676-1.966,1.241,0,2.688.573,2.688,2.191v9.527h2.995Z" transform="translate(-2279.534 -393.448)"/><path class="a" d="M3031.183,399.827c-.048-4.657-2.109-6.827-6.49-6.827-3.128,0-5.649,1.641-6.023,4.33h3.3c.282-1.374,1.993-1.5,2.682-1.5,2.321,0,3.41.834,3.538,3.064l-.04-.012a17.214,17.214,0,0,0-3.095-.343c-4.284,0-6.651,1.651-6.651,4.921,0,3.419,2.543,4.6,6.76,4.6a32.134,32.134,0,0,0,6.023-.6Zm-6.244,5.571c-2.591,0-3.489-.765-3.489-2,0-1.347.789-2.094,3.79-2.094a10.3,10.3,0,0,1,2.931.422v3.426A13.463,13.463,0,0,1,3024.939,405.4Z" transform="translate(-2982.245 -392.769)"/></g><circle class="b" cx="24" cy="24" r="24"/><path class="c" d="M476.54,400.539a.112.112,0,0,0,.221.024c.373-1.493,1.535-4.685,4.779-5.534,4.275-1.117,8.432-.595,10.959-1.918A6.466,6.466,0,0,0,495.586,389h-9.245a9.581,9.581,0,0,0-7.261,2.922C477.417,393.809,476.27,396.173,476.54,400.539Z" transform="translate(-462.043 -377.197)"/><path class="c" d="M477.1,681.952v3.286a2.345,2.345,0,0,0,2.345,2.345h12.61a2.345,2.345,0,0,0,2.345-2.345h0a2.345,2.345,0,0,0-2.345-2.345H482.049a.085.085,0,0,1-.085-.085v-5.158a.085.085,0,0,1,.085-.085h8.162a2.345,2.345,0,0,0,2.345-2.345h0a2.345,2.345,0,0,0-2.345-2.345h-8.162a.085.085,0,0,1-.085-.085v-1.077a.085.085,0,0,0-.127-.076,7.88,7.88,0,0,0-1.866,1.817A13.77,13.77,0,0,0,477.1,681.952Z" transform="translate(-462.624 -651.246)"/><g transform="translate(69.591 29.519)"><path class="a" d="M2298.182,972.9v1.277h-3.259v1.432h2.885v1.277h-2.885v1.45h3.386v1.277H2293.6V972.9Z" transform="translate(-2293.6 -972.9)"/><path class="a" d="M2477.451,979.618l-1.5-2.318-1.3,2.318H2473l2.2-3.468-2.109-3.25h1.69l1.45,2.227,1.259-2.227h1.6l-2.139,3.341,2.2,3.377Z" transform="translate(-2467.557 -972.9)"/><path class="a" d="M2715.944,973.507a2.112,2.112,0,0,1,.677,1.657,2.753,2.753,0,0,1-.234,1.126,1.964,1.964,0,0,1-.759.862,2.472,2.472,0,0,1-1.356.337h-.95v2.127H2712V972.9h2.036A2.76,2.76,0,0,1,2715.944,973.507Zm-1.077,2.527a.99.99,0,0,0,.328-.4,1.09,1.09,0,0,0,.1-.437,1.275,1.275,0,0,0-.209-.689.886.886,0,0,0-.813-.334h-.95V976.2h.94a.986.986,0,0,0,.6-.17Z" transform="translate(-2699.305 -972.9)"/><path class="a" d="M2907.885,972.9v1.277h-3.259v1.432h2.882v1.277h-2.882v1.45h3.386v1.277H2903.3V972.9Z" transform="translate(-2884.801 -972.9)"/><path class="a" d="M3107.323,979.618l-1.414-2.136h-.886v2.136H3103.7V972.9h2.036a2.836,2.836,0,0,1,1.939.607,2.094,2.094,0,0,1,.689,1.657,2.659,2.659,0,0,1-.261,1.162,1.931,1.931,0,0,1-.8.853l1.56,2.436Zm-2.3-3.413h.94a.939.939,0,0,0,.786-.316,1.063,1.063,0,0,0,.246-.68,1.289,1.289,0,0,0-.209-.7.887.887,0,0,0-.813-.334h-.949Z" transform="translate(-3079.12 -972.9)"/><path class="a" d="M3295.124,972.9v1.277h-1.632v5.44h-1.323v-5.44H3290.6V972.9Z" transform="translate(-3260.35 -972.9)"/></g></g></g></svg>