<svg xmlns="http://www.w3.org/2000/svg" width="123.596" height="48" viewBox="0 0 123.596 48"><defs><style>.a{fill:#fff;}</style></defs><g transform="translate(61.798 24)"><g transform="translate(-61.798 -24)"><path class="a" d="M1833.333,400.044c-2.731-.276-3.247-.828-3.247-1.754,0-1.544,2.2-1.657,2.876-1.663a2.775,2.775,0,0,1,2.952,1.845c.1,0,2.634.015,2.819,0,0-.649-.925-4.572-5.774-4.572-3.556,0-5.853,1.733-5.853,4.415,0,3.435,2.7,4.16,5.61,4.433,3.083.288,3.313.9,3.313,1.8,0,1.016-1.265,1.757-3.01,1.754-2.94-.006-3.186-2.106-3.186-2.106l-3.034-.039c.064,1.159,1.016,4.87,6.223,4.87,3.583,0,5.911-1.705,5.911-4.342C1838.937,401.752,1837.365,400.451,1833.333,400.044Z" transform="translate(-1771.372 -381.949)"/><circle class="a" cx="1.742" cy="1.742" r="1.742" transform="translate(119.296 12.241) rotate(-15.8)"/><path class="a" d="M3512.469,402.739a6.969,6.969,0,1,0-6.969-6.969A6.977,6.977,0,0,0,3512.469,402.739Zm0-10.935a3.966,3.966,0,1,1-3.966,3.966A3.969,3.969,0,0,1,3512.469,391.8Z" transform="translate(-3399.138 -377.003)"/><path class="a" d="M3574.737,886H3567v2.946c0,4.357,2.036,6.478,6.226,6.478h1.511c2.986,0,5.152-1.981,5.152-4.712S3577.72,886,3574.737,886Zm0,6.648h-1.511c-2.582,0-3.453-.907-3.453-3.589v-.285h4.964c1.15,0,2.382.51,2.382,1.939s-1.232,1.939-2.382,1.939Z" transform="translate(-3458.772 -859.118)"/><path class="a" d="M2310.415,398.885v9.527h2.995v-9.527c0-3-2.391-5.185-5.683-5.185a6.351,6.351,0,0,1-8.344,0c-3.292,0-5.683,2.182-5.683,5.185v9.527h2.995v-9.636c.064-1.535,1.475-2.081,2.685-2.081s2.546.522,2.676,1.966c0,.076.009,9.752.009,9.752h2.995s0-9.679-.006-9.752c.13-1.444,1.5-1.966,2.676-1.966C2308.968,396.695,2310.415,397.268,2310.415,398.885Z" transform="translate(-2224.106 -381.755)"/><path class="a" d="M3024.693,393.1c-3.128,0-5.649,1.641-6.023,4.33h3.3c.282-1.374,1.993-1.5,2.682-1.5,2.321,0,3.41.834,3.538,3.064l-.04-.012a17.214,17.214,0,0,0-3.095-.343c-4.284,0-6.651,1.651-6.651,4.921,0,3.419,2.543,4.6,6.76,4.6a32.134,32.134,0,0,0,6.023-.6v-7.628C3031.135,395.269,3029.071,393.1,3024.693,393.1Zm.246,12.4c-2.591,0-3.489-.765-3.489-2,0-1.347.789-2.094,3.79-2.094a10.3,10.3,0,0,1,2.931.422v3.422a13.463,13.463,0,0,1-3.231.249Z" transform="translate(-2926.818 -381.173)"/><path class="a" d="M24,0A24,24,0,1,0,48,24,24,24,0,0,0,24,0Zm7.776,33.991a2.345,2.345,0,0,1-2.345,2.345H16.821a2.345,2.345,0,0,1-2.345-2.345V30.705a13.767,13.767,0,0,1,2.867-8.5,7.879,7.879,0,0,1,1.866-1.817.085.085,0,0,1,.127.076v1.068a.085.085,0,0,0,.085.085h8.162a2.345,2.345,0,0,1,2.345,2.345h0a2.345,2.345,0,0,1-2.345,2.345H19.421a.085.085,0,0,0-.085.085v5.158a.085.085,0,0,0,.085.085h10.01a2.345,2.345,0,0,1,2.345,2.345Zm-1.32-18.077c-2.527,1.323-6.684.8-10.959,1.918-3.243.85-4.409,4.041-4.782,5.534a.112.112,0,0,1-.221-.024c-.27-4.369.877-6.733,2.54-8.617A9.581,9.581,0,0,1,24.3,11.8h9.245a6.469,6.469,0,0,1-3.086,4.114Z"/><path class="a" d="M2294.923,976.887h2.885v-1.277h-2.885v-1.432h3.259V972.9H2293.6v6.718h4.709V978.34h-3.386Z" transform="translate(-2224.009 -943.381)"/><path class="a" d="M2479,972.9h-1.6l-1.259,2.227-1.45-2.227h-1.69l2.109,3.25-2.2,3.468h1.642l1.308-2.318,1.5,2.318h1.705l-2.2-3.377Z" transform="translate(-2397.869 -943.381)"/><path class="a" d="M2715.944,973.507a2.76,2.76,0,0,0-1.908-.607H2712v6.718h1.323v-2.127h.95a2.472,2.472,0,0,0,1.356-.337,1.964,1.964,0,0,0,.759-.862,2.753,2.753,0,0,0,.234-1.126A2.129,2.129,0,0,0,2715.944,973.507Zm-.749,2.13a.956.956,0,0,1-.932.567h-.94v-2.027h.95a.891.891,0,0,1,.813.334,1.275,1.275,0,0,1,.209.689A1.09,1.09,0,0,1,2715.2,975.637Z" transform="translate(-2629.714 -943.381)"/><path class="a" d="M2904.626,976.887h2.882v-1.277h-2.882v-1.432h3.259V972.9H2903.3v6.718h4.712V978.34h-3.386Z" transform="translate(-2815.21 -943.381)"/><path class="a" d="M3108.1,976.326a2.662,2.662,0,0,0,.261-1.162,2.094,2.094,0,0,0-.689-1.657,2.836,2.836,0,0,0-1.939-.607H3103.7v6.718h1.323v-2.136h.886l1.414,2.136h1.541l-1.56-2.436A1.93,1.93,0,0,0,3108.1,976.326Zm-1.356-.437a.935.935,0,0,1-.786.316h-.941v-2.027h.95a.891.891,0,0,1,.813.334,1.291,1.291,0,0,1,.209.7A1.062,1.062,0,0,1,3106.747,975.889Z" transform="translate(-3009.53 -943.381)"/><path class="a" d="M3290.5,974.177h1.569v5.44h1.323v-5.44h1.635V972.9H3290.5Z" transform="translate(-3190.662 -943.381)"/></g></g></svg>